<svg width="25" height="21" viewBox="0 0 25 21" fill="none" xmlns="http://www.w3.org/2000/svg">
<path d="M10 20C11.1046 20 12 19.1046 12 18C12 16.8954 11.1046 16 10 16C8.89543 16 8 16.8954 8 18C8 19.1046 8.89543 20 10 20Z" stroke="#8E8E8E" stroke-linecap="round" stroke-linejoin="round"/>
<path d="M20 20C21.1046 20 22 19.1046 22 18C22 16.8954 21.1046 16 20 16C18.8954 16 18 16.8954 18 18C18 19.1046 18.8954 20 20 20Z" stroke="#8E8E8E" stroke-linecap="round" stroke-linejoin="round"/>
<path d="M0.771484 1.72827H5.0268L7.29323 13.7935" stroke="#8E8E8E" stroke-width="1.5" stroke-linecap="round" stroke-linejoin="round"/>
<path d="M7.375 13.875H21.9906C22.099 13.8751 22.2041 13.8376 22.288 13.7689C22.3718 13.7002 22.4293 13.6045 22.4506 13.4982L24.1381 5.06074C24.1517 4.99271 24.15 4.9225 24.1332 4.85518C24.1164 4.78786 24.0849 4.72511 24.0409 4.67147C23.9969 4.61782 23.9415 4.57461 23.8788 4.54496C23.816 4.51531 23.7475 4.49995 23.6781 4.5H14.5891L8.5163 4.5" stroke="#8E8E8E" stroke-width="1.5" stroke-linecap="round" stroke-linejoin="round"/>
</svg>
