<svg width="102" height="47" viewBox="0 0 102 47" fill="none" xmlns="http://www.w3.org/2000/svg">
<path d="M2.525 11.5977C2.48854 11.4518 2.47943 11.306 2.49766 11.1602C2.53412 10.9961 2.55235 10.832 2.55235 10.668C2.55235 10.5221 2.525 10.3854 2.47031 10.2578C2.43386 10.1302 2.42474 9.99349 2.44297 9.84766C2.57057 9.55599 2.73464 9.40104 2.93516 9.38281C3.15391 9.34635 3.34531 9.36458 3.50938 9.4375C3.52761 9.49219 3.55495 9.54688 3.59141 9.60156C3.62787 9.65625 3.65521 9.71094 3.67344 9.76562C3.63698 9.80208 3.59141 9.8112 3.53672 9.79297C3.48203 9.77474 3.42735 9.76562 3.37266 9.76562C3.22682 9.82031 3.12656 9.91146 3.07188 10.0391C3.01719 10.1667 2.98985 10.3125 2.98985 10.4766C2.97162 10.6771 2.97162 10.9049 2.98985 11.1602C3.0263 11.4154 3.04453 11.6341 3.04453 11.8164C3.06276 11.9987 3.0263 12.1081 2.93516 12.1445C2.80755 12.0716 2.73464 12.026 2.71641 12.0078C2.69818 11.9714 2.68906 11.9258 2.68906 11.8711C2.65261 11.8346 2.61615 11.7982 2.57969 11.7617C2.56146 11.707 2.54323 11.6523 2.525 11.5977ZM28.6109 28.9336C28.3922 29.0065 28.2099 29.0156 28.0641 28.9609C27.9182 28.9062 27.7815 28.8333 27.6539 28.7422C27.5263 28.6328 27.3896 28.5417 27.2438 28.4688C27.1161 28.3776 26.9612 28.3411 26.7789 28.3594C26.6331 28.3776 26.5146 28.4232 26.4234 28.4961C26.3323 28.569 26.2411 28.6419 26.15 28.7148C25.9677 28.8424 25.7581 28.9609 25.5211 29.0703C25.3388 29.0703 25.1747 29.0612 25.0289 29.043C24.8831 29.0247 24.7372 29.0521 24.5914 29.125C24.3727 29.0885 24.1904 29.0794 24.0445 29.0977C23.8987 29.1159 23.7255 29.1159 23.525 29.0977C23.4703 29.0794 23.3883 29.0885 23.2789 29.125C23.1878 29.1432 23.0966 29.1615 23.0055 29.1797C22.9326 29.1979 22.8596 29.207 22.7867 29.207C22.7138 29.1888 22.6318 29.1888 22.5406 29.207C22.4677 29.207 22.3948 29.2161 22.3219 29.2344C22.249 29.2526 22.1669 29.2526 22.0758 29.2344C21.7112 29.2161 21.3922 29.2161 21.1188 29.2344C20.8453 29.2344 20.6721 29.1159 20.5992 28.8789C20.5628 28.7878 20.5445 28.6875 20.5445 28.5781C20.5445 28.4688 20.5354 28.3411 20.5172 28.1953C20.4807 27.9219 20.4352 27.612 20.3805 27.2656C20.344 26.9193 20.344 26.5911 20.3805 26.2812C20.3987 26.0807 20.3987 25.8711 20.3805 25.6523C20.3622 25.4336 20.344 25.2148 20.3258 24.9961C20.3258 24.3763 20.2529 23.7747 20.107 23.1914C19.6331 22.9909 19.1409 22.9089 18.6305 22.9453C18.4846 22.9453 18.357 22.9544 18.2477 22.9727C18.1383 22.9909 18.0289 22.9818 17.9195 22.9453C17.8102 22.9271 17.7008 22.9089 17.5914 22.8906C17.5003 22.8724 17.3909 22.8633 17.2633 22.8633C17.1174 22.8633 16.9625 22.8815 16.7984 22.918C16.6526 22.9544 16.5068 22.9544 16.3609 22.918C16.2698 22.8997 16.1878 22.8724 16.1148 22.8359C16.0419 22.7812 15.9781 22.7357 15.9234 22.6992C15.8141 22.5716 15.7411 22.444 15.7047 22.3164C15.6682 22.1706 15.5315 22.1159 15.2945 22.1523C15.2034 22.2982 15.1305 22.4349 15.0758 22.5625C15.0211 22.6901 14.8935 22.7904 14.693 22.8633C14.6018 22.8815 14.5198 22.8906 14.4469 22.8906C14.374 22.8906 14.2919 22.9089 14.2008 22.9453C14.0914 22.9818 13.9729 23.0273 13.8453 23.082C13.7359 23.1367 13.6174 23.1823 13.4898 23.2188C13.4716 23.3646 13.4716 23.5013 13.4898 23.6289C13.5263 23.7565 13.5172 23.8841 13.4625 24.0117C13.426 24.1029 13.3805 24.1849 13.3258 24.2578C13.2711 24.3307 13.2438 24.4128 13.2438 24.5039C13.2438 24.5586 13.2711 24.6315 13.3258 24.7227C13.3805 24.7956 13.426 24.8685 13.4625 24.9414C13.4807 25.069 13.4716 25.2148 13.4352 25.3789C13.4169 25.543 13.3896 25.6979 13.3531 25.8438C13.3349 25.8984 13.3258 25.9531 13.3258 26.0078C13.3258 26.0625 13.3076 26.1172 13.2711 26.1719C13.1799 26.5365 13.1799 26.8008 13.2711 26.9648C13.3076 27.056 13.344 27.1289 13.3805 27.1836C13.4352 27.2201 13.4807 27.2747 13.5172 27.3477C13.5536 27.4935 13.5628 27.6393 13.5445 27.7852C13.5445 27.9128 13.5536 28.0495 13.5719 28.1953C13.5719 28.2865 13.5901 28.3958 13.6266 28.5234C13.663 28.651 13.663 28.7604 13.6266 28.8516C13.5901 28.9245 13.5354 28.9883 13.4625 29.043C13.3896 29.0794 13.3349 29.1432 13.2984 29.2344C13.1708 29.2708 13.0706 29.3255 12.9977 29.3984C12.943 29.4714 12.8701 29.5352 12.7789 29.5898C12.5784 29.6263 12.3688 29.6628 12.15 29.6992C11.9313 29.7357 11.7216 29.7174 11.5211 29.6445C11.2841 29.681 11.0198 29.7083 10.7281 29.7266C10.4547 29.7266 10.1995 29.7448 9.9625 29.7812C9.81667 29.6719 9.67083 29.5534 9.525 29.4258C9.37917 29.2982 9.18776 29.3073 8.95078 29.4531C8.85964 29.4896 8.78672 29.5443 8.73203 29.6172C8.69557 29.6901 8.63177 29.7448 8.54063 29.7812C8.34011 29.763 8.19427 29.7721 8.10313 29.8086C8.03021 29.8268 7.96641 29.8359 7.91172 29.8359C7.85703 29.8359 7.80235 29.8268 7.74766 29.8086C7.69297 29.7904 7.63828 29.7812 7.5836 29.7812C7.47422 29.763 7.36485 29.7721 7.25547 29.8086C7.1461 29.8451 7.01849 29.8542 6.87266 29.8359C6.63568 29.8177 6.44427 29.8359 6.29844 29.8906C6.15261 29.9271 6.00677 29.9271 5.86094 29.8906C5.73333 29.7995 5.5875 29.7448 5.42344 29.7266C5.27761 29.6901 5.15 29.6263 5.04063 29.5352C4.91302 29.4258 4.76719 29.2435 4.60313 28.9883C4.49375 28.5508 4.42083 28.1042 4.38438 27.6484C4.36615 27.1745 4.35703 26.7096 4.35703 26.2539C4.35703 25.7982 4.34792 25.3516 4.32969 24.9141C4.31146 24.4766 4.26589 24.0573 4.19297 23.6562C3.99245 23.6562 3.81016 23.6562 3.6461 23.6562C3.48203 23.638 3.28151 23.638 3.04453 23.6562C2.88047 23.6562 2.70729 23.6562 2.525 23.6562C2.36094 23.638 2.25156 23.5469 2.19688 23.3828C2.16042 23.3464 2.14219 23.2826 2.14219 23.1914C2.14219 23.1003 2.13307 23.0091 2.11485 22.918C2.09662 22.7721 2.0875 22.6536 2.0875 22.5625C2.0875 22.4714 2.07839 22.3438 2.06016 22.1797C2.04193 21.9062 2.0875 21.7148 2.19688 21.6055C2.30625 21.4779 2.35182 21.3411 2.3336 21.1953C2.3336 21.1406 2.29714 21.0859 2.22422 21.0312C2.16953 20.9766 2.12396 20.9219 2.0875 20.8672C1.99636 20.6302 1.96901 20.3841 2.00547 20.1289C2.04193 19.8737 2.16042 19.6914 2.36094 19.582C2.54323 19.4909 2.74375 19.418 2.9625 19.3633C3.18125 19.3086 3.40912 19.2721 3.6461 19.2539C3.73724 19.2539 3.81927 19.2539 3.89219 19.2539C3.96511 19.2539 4.03802 19.2266 4.11094 19.1719C4.09271 18.9531 4.09271 18.7526 4.11094 18.5703C4.12917 18.3698 4.13828 18.1693 4.13828 17.9688C4.13828 17.7135 4.12005 17.4766 4.0836 17.2578C4.04714 17.0208 4.01979 16.7839 4.00156 16.5469C4.00156 16.4922 4.01068 16.4375 4.02891 16.3828C4.04714 16.3281 4.05625 16.2734 4.05625 16.2188C4.03802 16.1094 4.01068 16.0091 3.97422 15.918C3.95599 15.8086 3.93776 15.6992 3.91953 15.5898C3.93776 15.3164 3.91953 14.9974 3.86485 14.6328C3.82839 14.2682 3.82839 13.9492 3.86485 13.6758C3.88307 13.5117 3.9013 13.4023 3.91953 13.3477C3.95599 13.2747 4.02891 13.2018 4.13828 13.1289C4.19297 12.8372 4.15651 12.6276 4.02891 12.5C3.91953 12.3542 3.81927 12.1992 3.72813 12.0352C3.72813 11.6888 3.71901 11.3698 3.70078 11.0781C3.68255 10.7682 3.75547 10.513 3.91953 10.3125C3.95599 10.276 4.00156 10.2487 4.05625 10.2305C4.11094 10.194 4.15651 10.1484 4.19297 10.0938C4.44818 9.94792 4.7125 9.85677 4.98594 9.82031C5.25938 9.78385 5.59662 9.7474 5.99766 9.71094C6.0888 9.71094 6.17083 9.70182 6.24375 9.68359C6.31667 9.66536 6.3987 9.65625 6.48985 9.65625C6.59922 9.63802 6.7086 9.63802 6.81797 9.65625C6.94557 9.67448 7.06406 9.68359 7.17344 9.68359C7.26458 9.68359 7.34662 9.68359 7.41953 9.68359C7.49245 9.66536 7.57448 9.65625 7.66563 9.65625C7.86615 9.63802 8.0849 9.62891 8.32188 9.62891C8.55886 9.62891 8.80495 9.61979 9.06016 9.60156C9.11485 9.60156 9.16953 9.59245 9.22422 9.57422C9.27891 9.53776 9.32448 9.51953 9.36094 9.51953C9.48854 9.53776 9.57057 9.53776 9.60703 9.51953C9.64349 9.5013 9.67995 9.49219 9.71641 9.49219C9.80755 9.47396 9.91693 9.47396 10.0445 9.49219C10.1721 9.49219 10.2997 9.47396 10.4273 9.4375C10.6461 9.52865 10.7919 9.62891 10.8648 9.73828C10.9378 9.82943 11.038 9.90234 11.1656 9.95703C11.4573 9.95703 11.7307 9.875 11.9859 9.71094C12.0589 9.7474 12.1227 9.75651 12.1773 9.73828C12.2503 9.70182 12.3232 9.68359 12.3961 9.68359C12.5055 9.70182 12.6148 9.75651 12.7242 9.84766C12.8336 9.9388 12.8974 10.0208 12.9156 10.0938C12.8974 10.3672 12.8883 10.5859 12.8883 10.75C12.8883 10.9141 12.8974 11.069 12.9156 11.2148C12.9339 11.3971 12.9612 11.5977 12.9977 11.8164C13.0341 12.0352 13.0523 12.2448 13.0523 12.4453C13.0523 12.6276 13.0432 12.8099 13.025 12.9922C13.0068 13.1745 13.0068 13.3385 13.025 13.4844C13.0432 13.7031 13.0432 13.8398 13.025 13.8945C13.0068 13.9492 12.9885 13.9948 12.9703 14.0312C12.8974 14.2682 12.8427 14.4049 12.8063 14.4414C12.788 14.4779 12.7698 14.5143 12.7516 14.5508C12.7151 14.6419 12.7242 14.7604 12.7789 14.9062C12.8336 15.0339 12.8792 15.1523 12.9156 15.2617C13.0432 15.4805 13.0979 15.6263 13.0797 15.6992C13.0797 15.7539 13.0797 15.8177 13.0797 15.8906C13.0797 16.0365 13.0979 16.1914 13.1344 16.3555C13.1708 16.5195 13.1891 16.6745 13.1891 16.8203C13.2073 17.1484 13.2164 17.4948 13.2164 17.8594C13.2346 18.2057 13.262 18.5339 13.2984 18.8438C13.5901 18.9714 13.9365 19.0078 14.3375 18.9531C14.7385 18.8984 15.1305 18.8529 15.5133 18.8164C15.6044 18.8164 15.6956 18.8255 15.7867 18.8438C15.8961 18.8438 15.9964 18.8438 16.0875 18.8438C16.1969 18.8255 16.2971 18.8164 16.3883 18.8164C16.4977 18.7982 16.607 18.7799 16.7164 18.7617C16.9716 18.7435 17.2268 18.7253 17.482 18.707C17.7555 18.6888 18.0198 18.6797 18.275 18.6797C18.4755 18.6797 18.6396 18.6797 18.7672 18.6797C18.913 18.6615 19.0862 18.6432 19.2867 18.625C19.4326 18.6068 19.5966 18.5977 19.7789 18.5977C19.9612 18.5794 20.0797 18.5065 20.1344 18.3789C20.0979 18.2148 20.0615 18.0417 20.025 17.8594C20.0068 17.6771 20.0159 17.513 20.0523 17.3672C20.1617 17.0391 20.2164 16.8021 20.2164 16.6562C20.2346 16.5104 20.262 16.3737 20.2984 16.2461C20.3349 16.1549 20.3622 16.0638 20.3805 15.9727C20.4169 15.8815 20.426 15.763 20.4078 15.6172C20.3714 15.4167 20.3076 15.2435 20.2164 15.0977C20.1435 14.9336 20.0615 14.7604 19.9703 14.5781C19.9521 14.1589 19.9521 13.7305 19.9703 13.293C20.0068 12.8372 19.9977 12.3724 19.943 11.8984C19.9065 11.7526 19.8792 11.6159 19.8609 11.4883C19.8427 11.3424 19.8245 11.1966 19.8063 11.0508C19.788 10.9596 19.7607 10.8776 19.7242 10.8047C19.6878 10.7318 19.6786 10.6589 19.6969 10.5859C19.6969 10.5312 19.7242 10.4674 19.7789 10.3945C19.8518 10.3216 19.9065 10.2487 19.943 10.1758C19.9794 10.1211 20.025 10.0573 20.0797 9.98438C20.1344 9.91146 20.1891 9.85677 20.2438 9.82031C20.3167 9.78385 20.3987 9.76562 20.4898 9.76562C20.5992 9.7474 20.6995 9.72005 20.7906 9.68359C20.9 9.64714 21.0003 9.60156 21.0914 9.54688C21.1826 9.47396 21.2464 9.4375 21.2828 9.4375C21.3375 9.41927 21.3922 9.41927 21.4469 9.4375C21.5198 9.45573 21.5836 9.46484 21.6383 9.46484C21.7477 9.44661 21.857 9.41927 21.9664 9.38281C22.094 9.34635 22.2125 9.32812 22.3219 9.32812C22.3948 9.32812 22.4586 9.33724 22.5133 9.35547C22.5862 9.3737 22.65 9.38281 22.7047 9.38281C22.7958 9.38281 22.887 9.3737 22.9781 9.35547C23.0693 9.31901 23.1695 9.30078 23.2789 9.30078C23.3883 9.28255 23.4977 9.29167 23.607 9.32812C23.7164 9.34635 23.8167 9.34635 23.9078 9.32812C23.9807 9.3099 24.0445 9.29167 24.0992 9.27344C24.1539 9.25521 24.2177 9.24609 24.2906 9.24609C24.4547 9.22786 24.6096 9.22786 24.7555 9.24609C24.9195 9.26432 25.0745 9.27344 25.2203 9.27344C25.2568 9.21875 25.3297 9.20052 25.4391 9.21875C25.5667 9.23698 25.6487 9.22786 25.6852 9.19141C25.7763 9.22786 25.8583 9.23698 25.9313 9.21875C26.0042 9.18229 26.0862 9.17318 26.1773 9.19141C26.2685 9.19141 26.3505 9.23698 26.4234 9.32812C26.5146 9.41927 26.5966 9.49219 26.6695 9.54688C26.7607 9.63802 26.8427 9.72005 26.9156 9.79297C27.0068 9.84766 27.0979 9.89323 27.1891 9.92969C27.3896 9.92969 27.6174 9.95703 27.8727 10.0117C27.9638 10.0482 28.0732 10.0755 28.2008 10.0938C28.3284 10.112 28.4195 10.1484 28.4742 10.2031C28.5471 10.2943 28.5836 10.431 28.5836 10.6133C28.5836 10.7956 28.6018 10.9688 28.6383 11.1328C28.7112 11.6615 28.7385 12.1263 28.7203 12.5273C28.7021 12.9102 28.7112 13.3203 28.7477 13.7578C28.7841 14.013 28.8023 14.2682 28.8023 14.5234C28.8206 14.7786 28.8388 15.0339 28.857 15.2891C28.8753 15.4896 28.8753 15.6901 28.857 15.8906C28.8388 16.0911 28.8297 16.2917 28.8297 16.4922C28.8479 16.6927 28.8661 16.9206 28.8844 17.1758C28.9208 17.431 28.9391 17.6589 28.9391 17.8594C28.9391 18.0599 28.9299 18.2786 28.9117 18.5156C28.9117 18.7344 28.9299 18.9714 28.9664 19.2266C28.6383 19.6094 28.538 20.0469 28.6656 20.5391C28.7021 20.6302 28.7385 20.7031 28.775 20.7578C28.8297 20.8125 28.8753 20.8763 28.9117 20.9492C29.0029 21.0951 29.0576 21.2318 29.0758 21.3594C29.094 21.487 29.1031 21.651 29.1031 21.8516C29.1214 22.0521 29.1305 22.2708 29.1305 22.5078C29.1487 22.7266 29.1396 22.9362 29.1031 23.1367C29.176 23.4831 29.2125 23.8294 29.2125 24.1758C29.2307 24.5039 29.249 24.8685 29.2672 25.2695C29.2672 25.4154 29.2581 25.5703 29.2398 25.7344C29.2398 25.8802 29.249 26.026 29.2672 26.1719C29.2854 26.2266 29.2854 26.2812 29.2672 26.3359C29.2672 26.3906 29.2763 26.4544 29.2945 26.5273C29.2945 26.582 29.3036 26.6458 29.3219 26.7188C29.3401 26.7734 29.3492 26.8281 29.3492 26.8828C29.3492 26.9375 29.3401 27.0013 29.3219 27.0742C29.3036 27.1289 29.2945 27.1836 29.2945 27.2383C29.4404 27.7122 29.4039 28.0768 29.1852 28.332C28.9664 28.569 28.775 28.7695 28.6109 28.9336ZM4.46641 22.3984C4.46641 22.362 4.43906 22.2982 4.38438 22.207C4.34792 22.0977 4.31146 22.0247 4.275 21.9883C4.23854 21.9336 4.20208 21.8971 4.16563 21.8789C4.12917 21.8424 4.09271 21.806 4.05625 21.7695C3.92865 21.7695 3.82839 21.724 3.75547 21.6328C3.68255 21.5417 3.57318 21.5143 3.42735 21.5508C3.28151 21.6055 3.2086 21.7513 3.2086 21.9883C3.2086 22.2253 3.24505 22.4076 3.31797 22.5352C3.40912 22.5534 3.47292 22.5898 3.50938 22.6445C3.56406 22.681 3.62787 22.7083 3.70078 22.7266C3.84662 22.7448 4.00156 22.7174 4.16563 22.6445C4.34792 22.5716 4.44818 22.4896 4.46641 22.3984ZM6.92735 11.625C7.03672 11.5521 7.12787 11.4336 7.20078 11.2695C7.2737 11.0872 7.26458 10.9232 7.17344 10.7773C7.00938 10.7956 6.82708 10.7956 6.62656 10.7773C6.44427 10.7591 6.25287 10.75 6.05235 10.75C5.87005 10.7318 5.68776 10.7409 5.50547 10.7773C5.32318 10.7956 5.16823 10.8594 5.04063 10.9688C4.94948 11.0781 4.92214 11.2057 4.9586 11.3516C5.01328 11.4792 5.05886 11.5977 5.09531 11.707C5.13177 11.8346 5.15 11.9531 5.15 12.0625C5.16823 12.1536 5.2138 12.2174 5.28672 12.2539C5.46901 12.2539 5.64219 12.1901 5.80625 12.0625C5.86094 12.0078 5.8974 11.9349 5.91563 11.8438C5.95208 11.7526 5.98854 11.6888 6.025 11.6523C6.13438 11.5612 6.26198 11.543 6.40781 11.5977C6.57188 11.6523 6.74505 11.6615 6.92735 11.625ZM9.49766 28.332C9.5888 28.1862 9.59792 28.0677 9.525 27.9766C9.45208 27.8672 9.38828 27.7852 9.3336 27.7305C9.22422 27.7122 9.11485 27.7214 9.00547 27.7578C8.8961 27.7943 8.82318 27.849 8.78672 27.9219C8.67735 28.1224 8.72292 28.25 8.92344 28.3047C9.14219 28.3411 9.3336 28.3503 9.49766 28.332ZM9.14219 11.1328C9.14219 10.987 9.06927 10.8776 8.92344 10.8047C8.77761 10.7318 8.63177 10.6953 8.48594 10.6953C8.34011 10.7682 8.20339 10.8503 8.07578 10.9414C7.94818 11.0143 7.89349 11.1146 7.91172 11.2422C7.91172 11.3151 7.98464 11.4062 8.13047 11.5156C8.29453 11.625 8.40391 11.6797 8.4586 11.6797C8.60443 11.6979 8.75026 11.6432 8.8961 11.5156C9.04193 11.388 9.12396 11.2604 9.14219 11.1328ZM12.0953 27.8672C12.1318 27.8125 12.1409 27.7578 12.1227 27.7031C12.1044 27.6484 12.0953 27.5938 12.0953 27.5391C12.0953 27.4297 12.0862 27.3021 12.068 27.1562C12.068 27.0104 12.0497 26.8737 12.0133 26.7461C11.9951 26.6003 11.9495 26.4909 11.8766 26.418C11.8036 26.3268 11.7034 26.2995 11.5758 26.3359C11.4664 26.6641 11.3935 26.9375 11.357 27.1562C11.3206 27.3568 11.2294 27.5299 11.0836 27.6758C10.9378 27.694 10.8193 27.8034 10.7281 28.0039C10.6552 28.1862 10.6917 28.332 10.8375 28.4414C10.9286 28.5143 11.0836 28.5417 11.3023 28.5234C11.5211 28.5052 11.676 28.4688 11.7672 28.4141C11.8036 28.3958 11.831 28.3594 11.8492 28.3047C11.8674 28.2318 11.8948 28.1771 11.9313 28.1406C11.9677 28.1042 12.0042 28.0586 12.0406 28.0039C12.0771 27.9492 12.0953 27.9036 12.0953 27.8672ZM21.857 19.9102C21.9117 19.8555 21.9755 19.7643 22.0484 19.6367C22.1214 19.5091 22.176 19.3724 22.2125 19.2266C22.2672 19.0625 22.2945 18.9076 22.2945 18.7617C22.2945 18.6159 22.2581 18.4883 22.1852 18.3789C22.094 18.2878 21.9846 18.2422 21.857 18.2422C21.7294 18.224 21.6292 18.2604 21.5563 18.3516C21.4833 18.5339 21.4378 18.7161 21.4195 18.8984C21.4013 19.0625 21.3466 19.2083 21.2555 19.3359C21.1461 19.4818 20.9911 19.5729 20.7906 19.6094C20.5901 19.6458 20.3896 19.7096 20.1891 19.8008C20.1526 19.9284 20.1708 20.0378 20.2438 20.1289C20.3349 20.2201 20.426 20.2656 20.5172 20.2656C20.8635 20.1927 21.1279 20.138 21.3102 20.1016C21.5107 20.0469 21.693 19.9831 21.857 19.9102ZM22.5953 11.1875C22.7594 11.151 22.8688 11.0781 22.9234 10.9688C22.9052 10.8776 22.887 10.7773 22.8688 10.668C22.8505 10.5586 22.7958 10.4857 22.7047 10.4492C22.4495 10.4857 22.249 10.5039 22.1031 10.5039C21.9755 10.4857 21.8388 10.4857 21.693 10.5039C21.456 10.5221 21.2646 10.6315 21.1188 10.832C20.9729 11.0143 20.9365 11.2331 21.0094 11.4883C21.0458 11.5977 21.0914 11.7435 21.1461 11.9258C21.219 12.1081 21.3193 12.2083 21.4469 12.2266C21.5198 12.2266 21.5836 12.1992 21.6383 12.1445C21.693 12.0898 21.7568 12.0443 21.8297 12.0078C21.8297 11.6615 21.8935 11.4427 22.0211 11.3516C22.094 11.3151 22.1578 11.306 22.2125 11.3242C22.2672 11.3242 22.3401 11.3151 22.4313 11.2969L22.5953 11.1875ZM24.6188 10.9414C24.6188 10.8138 24.6005 10.7044 24.5641 10.6133C24.5458 10.5221 24.482 10.4583 24.3727 10.4219C24.1174 10.4948 23.9443 10.5859 23.8531 10.6953C23.762 10.8047 23.7073 10.9505 23.6891 11.1328C23.8349 11.1875 23.9898 11.1966 24.1539 11.1602C24.3362 11.1055 24.4911 11.0326 24.6188 10.9414ZM28.0914 27.1836C28.1279 27.0195 28.1279 26.8737 28.0914 26.7461C28.0732 26.6003 28.0549 26.4635 28.0367 26.3359C27.8362 26.2812 27.6721 26.3268 27.5445 26.4727C27.4169 26.6003 27.3714 26.7461 27.4078 26.9102C27.4807 27.0742 27.5172 27.1745 27.5172 27.2109C27.5354 27.2474 27.5901 27.2747 27.6813 27.293C27.7542 27.2565 27.818 27.2383 27.8727 27.2383C27.9273 27.2383 28.0003 27.2201 28.0914 27.1836ZM27.5445 9.51953C27.4898 9.48307 27.4352 9.44661 27.3805 9.41016C27.344 9.35547 27.2984 9.3099 27.2438 9.27344C27.3349 9.01823 27.4534 8.90885 27.5992 8.94531C27.7633 8.96354 27.9273 8.98177 28.0914 9C28.2737 9 28.3831 9.00911 28.4195 9.02734C28.456 9.04557 28.4924 9.0638 28.5289 9.08203C28.6747 9.11849 28.8388 9.17318 29.0211 9.24609C29.2034 9.30078 29.3128 9.40104 29.3492 9.54688C29.3857 9.7474 29.3583 9.90234 29.2672 10.0117C29.1943 10.1211 29.176 10.2852 29.2125 10.5039C28.9938 10.5039 28.8844 10.431 28.8844 10.2852C28.9026 10.1211 28.9026 9.95703 28.8844 9.79297C28.7932 9.73828 28.7112 9.72917 28.6383 9.76562C28.5654 9.80208 28.4833 9.8112 28.3922 9.79297C28.1734 9.70182 28.0003 9.64714 27.8727 9.62891C27.7451 9.61068 27.6357 9.57422 27.5445 9.51953ZM17.5641 18.1602C17.4911 17.832 17.5094 17.6497 17.6188 17.6133C17.7464 17.5768 17.9013 17.5221 18.0836 17.4492C18.1565 17.4128 18.2385 17.3854 18.3297 17.3672C18.4208 17.349 18.512 17.3216 18.6031 17.2852C18.6578 17.2487 18.7307 17.1849 18.8219 17.0938C18.913 17.0026 18.9768 16.9206 19.0133 16.8477C19.0862 16.6471 19.1044 16.4375 19.068 16.2188C19.0497 15.9818 19.0771 15.7539 19.15 15.5352C19.0406 15.5352 18.9586 15.5078 18.9039 15.4531C18.8674 15.3984 18.8492 15.3346 18.8492 15.2617C18.8674 15.1706 18.8948 15.0885 18.9313 15.0156C18.9859 14.9427 19.0497 14.8971 19.1227 14.8789C19.1956 14.9154 19.2594 14.9609 19.3141 15.0156C19.3688 15.0521 19.4234 15.0885 19.4781 15.125C19.4781 15.1797 19.469 15.2344 19.4508 15.2891C19.4326 15.3438 19.4326 15.3984 19.4508 15.4531C19.469 15.5443 19.5055 15.6263 19.5602 15.6992C19.6148 15.7721 19.6513 15.8542 19.6695 15.9453C19.6878 16.0729 19.6786 16.2096 19.6422 16.3555C19.624 16.5013 19.6057 16.6289 19.5875 16.7383C19.551 16.9023 19.5237 17.0664 19.5055 17.2305C19.4872 17.3763 19.4326 17.5221 19.3414 17.668C19.1227 17.8138 18.8492 17.9232 18.5211 17.9961C18.2112 18.069 17.8922 18.1237 17.5641 18.1602ZM30.3063 21.8516C30.3974 21.9427 30.4612 22.1159 30.4977 22.3711C30.5523 22.6263 30.5706 22.8542 30.5523 23.0547C30.5341 23.2188 30.4977 23.3737 30.443 23.5195C30.3883 23.6471 30.3245 23.7565 30.2516 23.8477C30.1786 23.8112 30.1148 23.7839 30.0602 23.7656C30.0055 23.7474 29.9599 23.7201 29.9234 23.6836C29.887 23.5924 29.887 23.5104 29.9234 23.4375C29.9599 23.3464 29.9781 23.2552 29.9781 23.1641C29.887 22.9271 29.8505 22.7539 29.8688 22.6445C29.9052 22.5352 29.9234 22.4258 29.9234 22.3164C29.9052 22.2253 29.8961 22.1341 29.8961 22.043C29.8961 21.9336 29.9326 21.8607 30.0055 21.8242C30.0419 21.806 30.0875 21.806 30.1422 21.8242C30.2151 21.8242 30.2698 21.8333 30.3063 21.8516ZM3.29063 24.668C3.32708 24.8138 3.28151 24.9323 3.15391 25.0234C3.04453 25.0964 2.8987 25.151 2.71641 25.1875C2.55235 25.2057 2.37917 25.2057 2.19688 25.1875C2.01458 25.1693 1.87787 25.1328 1.78672 25.0781C1.62266 25.0234 1.51328 24.987 1.4586 24.9688C1.4586 24.75 1.40391 24.4857 1.29453 24.1758C1.18516 23.8659 1.1487 23.6016 1.18516 23.3828C1.20339 23.2917 1.24896 23.2188 1.32188 23.1641C1.41302 23.1094 1.50417 23.1094 1.59531 23.1641C1.63177 23.2734 1.64089 23.3919 1.62266 23.5195C1.62266 23.6289 1.64089 23.7292 1.67735 23.8203C1.7138 23.9661 1.81406 24.1029 1.97813 24.2305C2.14219 24.3398 2.29714 24.4401 2.44297 24.5312C2.51589 24.5312 2.59792 24.5312 2.68906 24.5312C2.78021 24.513 2.86224 24.5039 2.93516 24.5039C3.0263 24.5039 3.09922 24.513 3.15391 24.5312C3.22682 24.5495 3.2724 24.5951 3.29063 24.668ZM18.1383 23.6289C18.1747 23.6654 18.2021 23.7292 18.2203 23.8203C18.2568 23.8932 18.2568 23.957 18.2203 24.0117C17.8193 24.1211 17.3909 24.1484 16.9352 24.0938C16.4977 24.0391 16.0419 23.9844 15.568 23.9297C15.3492 23.9844 15.1122 24.0299 14.857 24.0664C14.6201 24.1029 14.4195 24.0664 14.2555 23.957C14.219 23.8112 14.2372 23.6927 14.3102 23.6016C14.3831 23.5104 14.4924 23.4466 14.6383 23.4102C14.7477 23.3737 14.8479 23.3555 14.9391 23.3555C15.0667 23.3372 15.1305 23.319 15.1305 23.3008C15.1487 23.2826 15.176 23.2552 15.2125 23.2188C15.3583 23.0729 15.5315 23.0091 15.732 23.0273C15.7685 23.082 15.7958 23.1458 15.8141 23.2188C15.8323 23.2917 15.8779 23.3464 15.9508 23.3828C16.1148 23.3464 16.2789 23.3372 16.443 23.3555C16.6253 23.3555 16.7711 23.401 16.8805 23.4922C17.081 23.4922 17.2815 23.5286 17.482 23.6016C17.7008 23.6562 17.9195 23.6654 18.1383 23.6289ZM30.1148 24.8047C30.206 24.7682 30.3063 24.7682 30.4156 24.8047C30.4885 24.9688 30.5159 25.1602 30.4977 25.3789C30.4977 25.5977 30.4977 25.8255 30.4977 26.0625C30.4977 26.3724 30.4977 26.7005 30.4977 27.0469C30.5159 27.3932 30.5159 27.7396 30.4977 28.0859C30.4977 28.2865 30.4977 28.4779 30.4977 28.6602C30.5159 28.8424 30.5068 28.9974 30.4703 29.125C30.4521 29.1615 30.4156 29.207 30.3609 29.2617C30.3245 29.2982 30.288 29.3438 30.2516 29.3984C30.1786 29.4896 30.124 29.5807 30.0875 29.6719C30.0693 29.7448 30.0237 29.7995 29.9508 29.8359C29.8232 29.9271 29.6682 29.9727 29.4859 29.9727C29.3219 29.9544 29.1305 29.9635 28.9117 30C28.8023 30.0182 28.6201 30.0547 28.3648 30.1094C28.1096 30.1641 27.9 30.1458 27.7359 30.0547C27.6266 29.8542 27.5628 29.7357 27.5445 29.6992C27.5263 29.6628 27.5354 29.6172 27.5719 29.5625C27.7177 29.4714 27.8727 29.4531 28.0367 29.5078C28.219 29.5443 28.3922 29.5534 28.5563 29.5352C28.7568 29.4987 28.9391 29.444 29.1031 29.3711C29.2672 29.2982 29.4221 29.2435 29.568 29.207C29.6956 29.0612 29.8141 28.8971 29.9234 28.7148C30.0328 28.5326 30.0784 28.2956 30.0602 28.0039C30.0419 27.931 30.0237 27.8581 30.0055 27.7852C29.9872 27.7122 29.9781 27.6393 29.9781 27.5664C29.9599 27.4206 29.9508 27.2747 29.9508 27.1289C29.969 26.9831 29.9781 26.8372 29.9781 26.6914C29.9964 26.5273 30.0146 26.3542 30.0328 26.1719C30.051 25.9896 30.0693 25.8073 30.0875 25.625C30.0875 25.4792 30.0784 25.3424 30.0602 25.2148C30.0602 25.069 30.0784 24.9323 30.1148 24.8047ZM6.92735 30.2461C7.01849 30.2461 7.17344 30.2279 7.39219 30.1914C7.61094 30.1549 7.72943 30.1823 7.74766 30.2734C7.78412 30.3646 7.74766 30.4557 7.63828 30.5469C7.54714 30.6562 7.46511 30.7201 7.39219 30.7383C7.22813 30.7747 7.07318 30.7747 6.92735 30.7383C6.79974 30.7201 6.64479 30.7018 6.4625 30.6836C6.38958 30.6836 6.31667 30.6927 6.24375 30.7109C6.17083 30.7292 6.09792 30.7383 6.025 30.7383C5.64219 30.7201 5.33229 30.7292 5.09531 30.7656C4.85833 30.8203 4.62136 30.8021 4.38438 30.7109C4.23854 30.7474 4.12917 30.7201 4.05625 30.6289C3.98333 30.556 3.89219 30.5195 3.78281 30.5195C3.72813 30.3919 3.67344 30.237 3.61875 30.0547C3.56406 29.8906 3.53672 29.7083 3.53672 29.5078C3.53672 29.2526 3.50938 29.0065 3.45469 28.7695C3.41823 28.5326 3.37266 28.3047 3.31797 28.0859C3.35443 27.9948 3.40912 27.8945 3.48203 27.7852C3.55495 27.6758 3.65521 27.6667 3.78281 27.7578C3.85573 27.9219 3.87396 28.1042 3.8375 28.3047C3.80104 28.487 3.81016 28.6602 3.86485 28.8242C3.88307 28.9154 3.91953 28.9974 3.97422 29.0703C4.04714 29.1432 4.07448 29.2253 4.05625 29.3164C4.1474 29.4622 4.23854 29.599 4.32969 29.7266C4.43906 29.8542 4.56667 29.9635 4.7125 30.0547C4.78542 30.0365 4.84011 30.0456 4.87656 30.082C4.93125 30.1185 4.98594 30.1458 5.04063 30.1641C5.27761 30.1823 5.42344 30.2005 5.47813 30.2188C5.53281 30.2552 5.5875 30.2826 5.64219 30.3008C5.78802 30.319 5.94297 30.3008 6.10703 30.2461C6.2711 30.2096 6.42604 30.2005 6.57188 30.2188C6.62656 30.2188 6.68125 30.2188 6.73594 30.2188C6.79063 30.237 6.85443 30.2461 6.92735 30.2461ZM53.8 26.3359C53.8911 26.5182 53.9276 26.6914 53.9094 26.8555C53.9094 27.0195 53.8273 27.1654 53.6633 27.293C53.6268 27.3112 53.5539 27.3477 53.4445 27.4023C53.3534 27.457 53.2896 27.4844 53.2531 27.4844C53.0891 27.4661 52.9797 27.4753 52.925 27.5117C52.8885 27.5299 52.843 27.5482 52.7883 27.5664C52.6971 27.6029 52.5969 27.6302 52.4875 27.6484C52.3781 27.6667 52.2688 27.6758 52.1594 27.6758C51.9771 27.694 51.7857 27.6849 51.5852 27.6484C51.3846 27.612 51.1932 27.612 51.0109 27.6484C50.8286 27.6849 50.6646 27.7578 50.5188 27.8672C50.3911 27.9766 50.2818 28.0768 50.1906 28.168C50.0083 28.2227 49.7896 28.2956 49.5344 28.3867C49.2974 28.4596 49.0786 28.5143 48.8781 28.5508C48.7141 28.5872 48.5318 28.569 48.3313 28.4961C48.1307 28.4049 47.994 28.2956 47.9211 28.168C47.8846 28.1133 47.8482 28.0495 47.8117 27.9766C47.7935 27.8854 47.7753 27.8034 47.757 27.7305C47.7206 27.5299 47.675 27.4115 47.6203 27.375C47.5656 27.3203 47.5201 27.2656 47.4836 27.2109C47.4471 27.1745 47.4289 27.1289 47.4289 27.0742C47.4289 27.0013 47.4107 26.9375 47.3742 26.8828C47.3378 26.8281 47.3013 26.7826 47.2648 26.7461C47.2284 26.6914 47.201 26.6276 47.1828 26.5547C47.1464 26.5182 47.1281 26.4727 47.1281 26.418C47.1281 26.3633 47.1099 26.3086 47.0734 26.2539C47.037 26.1992 47.0005 26.1445 46.9641 26.0898C46.9276 26.0169 46.9094 25.9349 46.9094 25.8438C46.8 25.6979 46.7089 25.5339 46.6359 25.3516C46.5813 25.1693 46.481 25.0326 46.3352 24.9414C46.2076 24.9596 46.0891 24.9688 45.9797 24.9688C45.8885 24.9505 45.7792 24.9414 45.6516 24.9414C45.5057 24.9596 45.3599 24.987 45.2141 25.0234C45.0865 25.0417 44.9497 25.069 44.8039 25.1055C44.731 25.1055 44.6581 25.1055 44.5852 25.1055C44.5305 25.0872 44.4576 25.0781 44.3664 25.0781C44.2753 25.0599 44.1841 25.0599 44.093 25.0781C44.0201 25.0781 43.9471 25.069 43.8742 25.0508C43.6372 24.9779 43.4823 24.9505 43.4094 24.9688C43.3365 24.987 43.2727 25.0052 43.218 25.0234C43.1633 25.0417 43.1086 25.069 43.0539 25.1055C43.0175 25.1419 42.9719 25.1693 42.9172 25.1875C42.826 25.224 42.7167 25.2331 42.5891 25.2148C42.4797 25.1966 42.3703 25.1875 42.2609 25.1875C42.1333 25.1875 42.0057 25.1966 41.8781 25.2148C41.7688 25.2331 41.6411 25.2513 41.4953 25.2695C41.4042 25.2878 41.3039 25.2969 41.1945 25.2969C41.0852 25.2786 40.9849 25.2786 40.8938 25.2969C40.6021 25.3333 40.2922 25.3607 39.9641 25.3789C39.6359 25.3971 39.3169 25.4245 39.007 25.4609C38.8977 25.5703 38.8247 25.6979 38.7883 25.8438C38.7518 25.9896 38.6971 26.1354 38.6242 26.2812C38.5878 26.3359 38.5513 26.3906 38.5148 26.4453C38.4784 26.4818 38.451 26.5365 38.4328 26.6094C38.3964 26.6823 38.3872 26.7643 38.4055 26.8555C38.4419 26.9284 38.451 27.0104 38.4328 27.1016C38.4328 27.1745 38.3872 27.3112 38.2961 27.5117C38.205 27.7122 38.132 27.849 38.0773 27.9219C38.0044 27.9948 37.8859 28.0677 37.7219 28.1406C37.576 28.1953 37.4302 28.2135 37.2844 28.1953C37.0109 28.1589 36.7922 28.1862 36.6281 28.2773C36.4641 28.3685 36.2818 28.4323 36.0813 28.4688C35.9536 28.4688 35.8443 28.4688 35.7531 28.4688C35.662 28.4505 35.5435 28.4323 35.3977 28.4141C35.3247 28.3411 35.2427 28.2865 35.1516 28.25C35.0786 28.2135 34.9966 28.1771 34.9055 28.1406C34.8872 28.0859 34.8508 28.0312 34.7961 27.9766C34.7414 27.9219 34.7141 27.8672 34.7141 27.8125C34.7141 27.6849 34.7505 27.5573 34.8234 27.4297C34.9146 27.2839 34.9784 27.1471 35.0148 27.0195C35.0513 26.9466 35.0695 26.8828 35.0695 26.8281C35.0695 26.7552 35.0878 26.6823 35.1242 26.6094C35.1971 26.4271 35.2792 26.2357 35.3703 26.0352C35.4797 25.8346 35.5526 25.6523 35.5891 25.4883C35.3885 25.4883 35.1971 25.5065 35.0148 25.543C34.8326 25.5794 34.6503 25.5794 34.468 25.543C34.3768 25.5065 34.2583 25.4792 34.1125 25.4609C33.9849 25.4245 33.9029 25.3698 33.8664 25.2969C33.83 25.224 33.7753 25.1237 33.7023 24.9961C33.6477 24.8503 33.6203 24.7135 33.6203 24.5859C33.6385 24.4766 33.6841 24.3854 33.757 24.3125C33.83 24.2214 33.8664 24.1211 33.8664 24.0117C33.8482 23.9206 33.8026 23.8385 33.7297 23.7656C33.675 23.6927 33.6385 23.5924 33.6203 23.4648C33.6021 23.319 33.6385 23.1914 33.7297 23.082C33.8208 22.9727 33.8846 22.8724 33.9211 22.7812C34.1216 22.6719 34.3404 22.599 34.5773 22.5625C34.8326 22.5078 35.0969 22.4714 35.3703 22.4531C35.6438 22.4349 35.9172 22.4258 36.1906 22.4258C36.4641 22.4258 36.7193 22.4076 36.9563 22.3711C37.0839 22.1341 37.1932 21.888 37.2844 21.6328C37.3755 21.3776 37.4758 21.1224 37.5852 20.8672C37.7675 20.7943 37.9133 20.7031 38.0227 20.5938C38.132 20.4844 38.2323 20.3568 38.3234 20.2109C38.3234 20.0833 38.3326 19.9648 38.3508 19.8555C38.3872 19.7461 38.3964 19.6367 38.3781 19.5273C38.3234 19.2357 38.3326 19.0169 38.4055 18.8711C38.4784 18.7253 38.5422 18.5977 38.5969 18.4883C38.6333 18.3971 38.6607 18.306 38.6789 18.2148C38.7154 18.1237 38.7518 18.0326 38.7883 17.9414C38.8977 17.7227 38.9888 17.5404 39.0617 17.3945C39.1346 17.2305 39.2714 17.1029 39.4719 17.0117C39.563 16.8659 39.6359 16.7109 39.6906 16.5469C39.7635 16.3828 39.7818 16.2005 39.7453 16C39.6724 15.7995 39.6542 15.6628 39.6906 15.5898C39.7271 15.5169 39.7635 15.4349 39.8 15.3438C39.8365 15.2708 39.8547 15.1979 39.8547 15.125C39.8729 15.0339 39.8911 14.9609 39.9094 14.9062C39.9458 14.8698 39.9732 14.8242 39.9914 14.7695C40.0096 14.7148 40.037 14.6693 40.0734 14.6328C40.1464 14.3594 40.2102 14.168 40.2648 14.0586C40.3378 13.931 40.3925 13.8034 40.4289 13.6758C40.2831 13.4753 40.1281 13.2383 39.9641 12.9648C39.8 12.6914 39.7635 12.3997 39.8547 12.0898C40.1281 11.944 40.4016 11.8164 40.675 11.707C40.9667 11.5977 41.2492 11.4701 41.5227 11.3242C41.6138 11.3607 41.6776 11.3607 41.7141 11.3242C41.7688 11.2695 41.8234 11.2422 41.8781 11.2422C41.9328 11.2422 41.9784 11.2604 42.0148 11.2969C42.0695 11.3333 42.1151 11.3607 42.1516 11.3789C42.4615 11.3789 42.6711 11.3789 42.7805 11.3789C42.8898 11.3607 42.9901 11.2878 43.0813 11.1602C43.1359 11.1055 43.1815 11.0417 43.218 10.9688C43.2544 10.8776 43.3091 10.7865 43.382 10.6953C43.4185 10.6406 43.4732 10.6042 43.5461 10.5859C43.6372 10.5495 43.7284 10.513 43.8195 10.4766C43.9107 10.4401 44.0018 10.4036 44.093 10.3672C44.1841 10.3125 44.3026 10.2943 44.4484 10.3125C44.5214 10.2214 44.5943 10.2122 44.6672 10.2852C44.7401 10.3398 44.8039 10.3763 44.8586 10.3945C44.9133 10.4128 44.9589 10.4219 44.9953 10.4219C45.05 10.4036 45.1047 10.4036 45.1594 10.4219C45.3417 10.4583 45.4784 10.5586 45.5695 10.7227C45.6607 10.8867 45.7792 11.0052 45.925 11.0781C46.1255 11.4427 46.326 11.7982 46.5266 12.1445C46.7453 12.4727 46.955 12.8281 47.1555 13.2109C47.2466 13.3932 47.3469 13.5664 47.4563 13.7305C47.5656 13.8763 47.675 14.0404 47.7844 14.2227C47.8391 14.332 47.8846 14.4414 47.9211 14.5508C47.9576 14.6602 48.0122 14.7604 48.0852 14.8516C48.2128 15.0339 48.3313 15.2161 48.4406 15.3984C48.55 15.5807 48.6594 15.7721 48.7688 15.9727C48.8599 16.1185 48.9419 16.2643 49.0148 16.4102C49.106 16.556 49.1425 16.7383 49.1242 16.957C49.1242 17.0117 49.106 17.0664 49.0695 17.1211C49.0513 17.1576 49.0513 17.2122 49.0695 17.2852C49.0878 17.4674 49.1607 17.6224 49.2883 17.75C49.4341 17.8594 49.5617 17.987 49.6711 18.1328C49.744 18.224 49.7987 18.3333 49.8352 18.4609C49.8898 18.5703 49.9536 18.6797 50.0266 18.7891C50.1724 19.0625 50.3273 19.3542 50.4914 19.6641C50.6737 19.9557 50.8378 20.2292 50.9836 20.4844C50.9471 20.5755 50.9198 20.6758 50.9016 20.7852C50.9016 20.8945 50.938 20.9766 51.0109 21.0312C51.1203 21.013 51.2023 21.0312 51.257 21.0859C51.3117 21.1224 51.3482 21.1862 51.3664 21.2773C51.4029 21.3503 51.4302 21.4323 51.4484 21.5234C51.4849 21.6146 51.5214 21.6875 51.5578 21.7422C51.4667 21.888 51.4211 22.0521 51.4211 22.2344C51.4393 22.3984 51.576 22.4805 51.8313 22.4805C52.0318 22.918 52.2505 23.3464 52.4875 23.7656C52.7245 24.1849 52.9615 24.6133 53.1984 25.0508C53.3078 25.2513 53.399 25.4701 53.4719 25.707C53.5448 25.944 53.6542 26.1536 53.8 26.3359ZM35.9172 27.457C36.063 27.4206 36.1633 27.3203 36.218 27.1562C36.2727 26.9922 36.2727 26.8372 36.218 26.6914C36.0357 26.6914 35.9172 26.7826 35.8625 26.9648C35.826 27.1471 35.8443 27.3112 35.9172 27.457ZM36.9289 24.8047C36.9107 24.6771 36.8469 24.5859 36.7375 24.5312C36.6464 24.4766 36.537 24.4492 36.4094 24.4492C36.3 24.4492 36.1997 24.4857 36.1086 24.5586C36.0175 24.6315 35.9628 24.7318 35.9445 24.8594C36.1268 24.8594 36.2544 24.9141 36.3273 25.0234C36.4185 25.1146 36.5096 25.224 36.6008 25.3516C36.6008 25.4245 36.5734 25.5156 36.5188 25.625C36.4823 25.7161 36.5096 25.7982 36.6008 25.8711C36.6737 25.7799 36.7375 25.6615 36.7922 25.5156C36.8651 25.3698 36.9107 25.224 36.9289 25.0781V24.8047ZM41.2766 12.4727C41.0943 12.5638 41.0122 12.7188 41.0305 12.9375C41.0487 13.138 41.1398 13.3021 41.3039 13.4297C41.5591 13.3385 41.6958 13.2201 41.7141 13.0742C41.7505 12.9102 41.7779 12.737 41.7961 12.5547C41.7596 12.4453 41.6867 12.3906 41.5773 12.3906C41.468 12.3906 41.3677 12.418 41.2766 12.4727ZM43.5188 22.0156C43.6828 21.9427 43.856 21.9154 44.0383 21.9336C44.2206 21.9336 44.412 21.9245 44.6125 21.9062C44.5214 21.651 44.412 21.4414 44.2844 21.2773C44.1568 21.1133 44.0747 20.9128 44.0383 20.6758C44.0018 20.5846 44.0018 20.4935 44.0383 20.4023C44.0747 20.293 44.0839 20.1745 44.0656 20.0469C44.0474 19.9557 43.9745 19.8372 43.8469 19.6914C43.7193 19.5273 43.6099 19.4271 43.5188 19.3906C43.3365 19.3177 43.218 19.2266 43.1633 19.1172C43.1086 18.9896 43.063 18.8802 43.0266 18.7891C42.899 18.5339 42.7714 18.2786 42.6438 18.0234C42.5344 17.75 42.4068 17.513 42.2609 17.3125C42.0604 17.7865 41.8508 18.2604 41.632 18.7344C41.4315 19.2083 41.2401 19.7005 41.0578 20.2109C41.0214 20.2656 40.9576 20.3112 40.8664 20.3477C40.7753 20.3659 40.7115 20.4206 40.675 20.5117C40.6385 20.5664 40.6203 20.6211 40.6203 20.6758C40.6385 20.7305 40.6385 20.7852 40.6203 20.8398C40.5839 21.0404 40.5109 21.25 40.4016 21.4688C40.3104 21.6875 40.2466 21.9154 40.2102 22.1523C40.4289 22.1523 40.675 22.1341 40.9484 22.0977C41.2401 22.043 41.5135 22.0156 41.7688 22.0156C41.8052 22.0703 41.8508 22.0977 41.9055 22.0977C41.9784 22.0977 42.0513 22.1159 42.1242 22.1523C42.2154 22.2617 42.3156 22.3438 42.425 22.3984C42.5526 22.4349 42.6346 22.4622 42.6711 22.4805C42.9081 22.5352 43.0721 22.4896 43.1633 22.3438C43.2544 22.1979 43.3729 22.0885 43.5188 22.0156ZM47.6477 24.2852C47.7935 24.3216 47.8846 24.2852 47.9211 24.1758C47.9758 24.0664 47.9849 23.9479 47.9484 23.8203C47.8391 23.7839 47.757 23.7109 47.7023 23.6016C47.6477 23.4922 47.5383 23.4557 47.3742 23.4922C47.4107 23.638 47.438 23.793 47.4563 23.957C47.4927 24.1029 47.5565 24.2122 47.6477 24.2852ZM50.3 26.4453C50.3 26.3542 50.2909 26.263 50.2727 26.1719C50.2727 26.0807 50.2362 26.0078 50.1633 25.9531C50.0539 25.9896 49.9445 26.0443 49.8352 26.1172C49.744 26.1719 49.6255 26.2083 49.4797 26.2266C49.3703 26.099 49.2518 25.9896 49.1242 25.8984C48.9966 25.8073 48.9055 25.6797 48.8508 25.5156C48.7414 25.4427 48.6411 25.3607 48.55 25.2695C48.4771 25.1784 48.3951 25.0872 48.3039 24.9961C48.231 25.0508 48.1945 25.1237 48.1945 25.2148C48.1945 25.2878 48.1763 25.3607 48.1398 25.4336C48.1945 25.5612 48.2675 25.6797 48.3586 25.7891C48.3951 25.8802 48.4315 25.9805 48.468 26.0898C48.5227 26.1992 48.5682 26.2995 48.6047 26.3906C48.6411 26.5547 48.6867 26.7096 48.7414 26.8555C48.7961 26.9831 48.8964 27.0742 49.0422 27.1289C49.3521 26.9102 49.6164 26.7826 49.8352 26.7461C50.0539 26.7096 50.2089 26.6094 50.3 26.4453ZM38.132 12.8828C38.0044 12.8646 37.9315 12.7826 37.9133 12.6367C37.9133 12.4909 37.8951 12.3542 37.8586 12.2266C37.8951 12.1172 37.9771 12.0716 38.1047 12.0898C38.2323 12.0898 38.3417 12.1081 38.4328 12.1445C38.5422 12.4362 38.5513 12.6458 38.4602 12.7734C38.3872 12.8828 38.2779 12.9193 38.132 12.8828ZM38.925 14.1406C38.925 14.0677 38.8977 13.9948 38.843 13.9219C38.8065 13.8307 38.7609 13.7578 38.7063 13.7031C38.6516 13.6302 38.606 13.5573 38.5695 13.4844C38.5331 13.4115 38.524 13.3294 38.5422 13.2383C38.5604 13.1836 38.606 13.1107 38.6789 13.0195C38.7518 12.9284 38.8247 12.8828 38.8977 12.8828C38.9706 12.8646 39.0435 12.8919 39.1164 12.9648C39.1893 13.0195 39.2531 13.1016 39.3078 13.2109C39.3625 13.3021 39.4081 13.3932 39.4445 13.4844C39.4992 13.5755 39.5448 13.6484 39.5813 13.7031C39.5448 13.7578 39.5448 13.8307 39.5813 13.9219C39.6359 13.9948 39.6451 14.0768 39.6086 14.168C39.5904 14.2227 39.5539 14.2773 39.4992 14.332C39.4628 14.3867 39.4263 14.4414 39.3898 14.4961C39.2987 14.6419 39.2258 14.806 39.1711 14.9883C39.1346 15.1523 39.0708 15.3255 38.9797 15.5078C38.8885 15.6354 38.8065 15.7721 38.7336 15.918C38.6607 16.0456 38.5422 16.0456 38.3781 15.918C38.3234 15.7904 38.3326 15.681 38.4055 15.5898C38.4966 15.4805 38.5604 15.3529 38.5969 15.207C38.688 14.9154 38.7701 14.7057 38.843 14.5781C38.9159 14.4323 38.9432 14.2865 38.925 14.1406ZM38.2688 14.9336C38.1776 15.0065 38.0956 15.0156 38.0227 14.9609C37.968 14.888 37.9406 14.7969 37.9406 14.6875C37.9406 14.651 37.9497 14.6055 37.968 14.5508C38.0044 14.4779 38.0227 14.4049 38.0227 14.332C38.0409 14.2409 38.0409 14.1589 38.0227 14.0859C38.0227 13.9948 38.05 13.9401 38.1047 13.9219C38.4146 14.1771 38.524 14.3776 38.4328 14.5234C38.3599 14.651 38.3052 14.7878 38.2688 14.9336ZM38.3234 16.957C38.2323 17.0846 38.1047 17.112 37.9406 17.0391C37.8677 16.8932 37.8951 16.7292 38.0227 16.5469C38.1685 16.3464 38.3052 16.2643 38.4328 16.3008C38.524 16.4466 38.5513 16.5286 38.5148 16.5469C38.4966 16.5651 38.4693 16.6016 38.4328 16.6562C38.4146 16.6927 38.3964 16.7474 38.3781 16.8203C38.3781 16.875 38.3599 16.9206 38.3234 16.957ZM41.4406 19.9375C41.5865 19.8281 41.6776 19.8464 41.7141 19.9922C41.7688 20.138 41.7688 20.2747 41.7141 20.4023C41.6776 20.4935 41.6138 20.6211 41.5227 20.7852C41.4497 20.931 41.4224 21.0495 41.4406 21.1406C41.4589 21.2318 41.4953 21.2956 41.55 21.332C41.6047 21.3503 41.6594 21.3958 41.7141 21.4688C41.6594 21.5964 41.5227 21.6602 41.3039 21.6602C41.1034 21.6602 40.9393 21.6693 40.8117 21.6875C40.8117 21.5964 40.8117 21.5234 40.8117 21.4688C40.83 21.3958 40.8482 21.3138 40.8664 21.2227C40.9029 21.1315 40.9484 21.0586 41.0031 21.0039C41.0578 20.931 41.1034 20.849 41.1398 20.7578C41.2492 20.5391 41.3039 20.3932 41.3039 20.3203C41.3404 20.2474 41.3586 20.1745 41.3586 20.1016C41.3768 20.0286 41.4042 19.974 41.4406 19.9375ZM42.1242 21.7148C42.0331 21.6419 41.9966 21.5781 42.0148 21.5234C42.0513 21.4505 42.106 21.3958 42.1789 21.3594C42.2518 21.3229 42.3339 21.3138 42.425 21.332C42.5161 21.3503 42.5891 21.3958 42.6438 21.4688C42.6255 21.5599 42.5708 21.6328 42.4797 21.6875C42.3885 21.7422 42.2701 21.7513 42.1242 21.7148ZM39.007 27.4297C39.0435 27.5573 39.0344 27.6758 38.9797 27.7852C38.925 27.8763 38.8794 27.9857 38.843 28.1133C38.8247 28.2227 38.8156 28.3138 38.8156 28.3867C38.8156 28.4414 38.7974 28.5143 38.7609 28.6055C38.6333 28.7513 38.5604 28.8516 38.5422 28.9062C38.5422 28.9609 38.524 29.0065 38.4875 29.043C38.3964 29.1159 38.2596 29.1615 38.0773 29.1797C37.8951 29.1797 37.7219 29.1979 37.5578 29.2344C37.5031 29.2344 37.4484 29.2435 37.3938 29.2617C37.3391 29.2799 37.2935 29.2982 37.257 29.3164C37.1659 29.3164 37.0656 29.3164 36.9563 29.3164C36.8651 29.3164 36.7831 29.3255 36.7102 29.3438C36.6737 29.362 36.619 29.3893 36.5461 29.4258C36.4914 29.4622 36.4458 29.4896 36.4094 29.5078C36.3182 29.526 36.2271 29.5169 36.1359 29.4805C36.063 29.4258 35.9901 29.3893 35.9172 29.3711C35.9172 29.2982 35.9263 29.2435 35.9445 29.207C35.9628 29.1706 35.9719 29.125 35.9719 29.0703C36.063 28.9974 36.1451 28.9701 36.218 28.9883C36.3091 29.0065 36.4094 29.0065 36.5188 28.9883C36.5917 28.9883 36.6555 28.9792 36.7102 28.9609C36.7831 28.9245 36.8469 28.8971 36.9016 28.8789C37.1385 28.8242 37.3938 28.806 37.6672 28.8242C37.9406 28.8242 38.1503 28.7695 38.2961 28.6602C38.3872 28.5872 38.4693 28.4414 38.5422 28.2227C38.5969 28.0221 38.6333 27.9219 38.6516 27.9219C38.688 27.9036 38.7063 27.8763 38.7063 27.8398C38.7427 27.7669 38.7609 27.694 38.7609 27.6211C38.7792 27.5482 38.8247 27.4844 38.8977 27.4297H39.007ZM48.9055 29.1523C49.0148 29.1159 49.1242 29.0794 49.2336 29.043C49.343 28.9883 49.4615 28.9792 49.5891 29.0156C49.5526 29.1615 49.4523 29.2708 49.2883 29.3438C49.1242 29.4167 48.9693 29.4987 48.8234 29.5898C48.6776 29.6628 48.5318 29.7448 48.3859 29.8359C48.2583 29.9089 48.1034 29.9635 47.9211 30C47.83 30.0182 47.7388 30.0273 47.6477 30.0273C47.5565 30.0273 47.4836 30.0091 47.4289 29.9727C47.3925 29.8997 47.3742 29.8359 47.3742 29.7812C47.3925 29.7266 47.4198 29.6719 47.4563 29.6172C47.438 29.599 47.4107 29.4987 47.3742 29.3164C47.3195 29.2253 47.2193 29.1615 47.0734 29.125C46.9276 29.0703 46.8091 28.9974 46.718 28.9062C46.6086 28.7969 46.5448 28.6602 46.5266 28.4961C46.5083 28.3138 46.5175 28.1224 46.5539 27.9219C46.6451 27.849 46.718 27.8581 46.7727 27.9492C46.8456 28.0404 46.9003 28.1133 46.9367 28.168C47.119 28.4049 47.2648 28.6146 47.3742 28.7969C47.4654 28.9245 47.5747 29.043 47.7023 29.1523C47.83 29.2435 47.9849 29.2982 48.1672 29.3164C48.2583 29.3164 48.3495 29.2982 48.4406 29.2617C48.5318 29.2253 48.6229 29.1979 48.7141 29.1797L48.9055 29.1523ZM34.9055 28.7422C35.1242 28.7057 35.3247 28.7513 35.507 28.8789C35.5435 29.043 35.5344 29.1706 35.4797 29.2617C35.4432 29.3529 35.3703 29.4258 35.2609 29.4805C35.1698 29.5169 35.0695 29.526 34.9602 29.5078C34.869 29.4896 34.787 29.4349 34.7141 29.3438C34.7141 29.0521 34.7779 28.8516 34.9055 28.7422ZM51.175 28.5234C51.412 28.5599 51.649 28.5326 51.8859 28.4414C52.1229 28.3503 52.3599 28.3138 52.5969 28.332C52.5969 28.5143 52.5057 28.6328 52.3234 28.6875C52.1411 28.7422 51.968 28.7878 51.8039 28.8242C51.6945 28.8607 51.6034 28.888 51.5305 28.9062C51.4758 28.9245 51.4029 28.9518 51.3117 28.9883C51.1112 29.0247 50.9198 29.0885 50.7375 29.1797C50.5734 29.2708 50.3911 29.2799 50.1906 29.207C50.1542 29.1523 50.1359 29.0885 50.1359 29.0156C50.1359 28.9427 50.1268 28.8698 50.1086 28.7969C50.1997 28.7057 50.3091 28.6237 50.4367 28.5508C50.5643 28.4596 50.701 28.3685 50.8469 28.2773C50.938 28.2773 51.0018 28.3047 51.0383 28.3594C51.093 28.3958 51.1385 28.4505 51.175 28.5234ZM60.1219 10.9961C60.0307 10.9961 59.9487 10.9688 59.8758 10.9141C59.8029 10.8411 59.7482 10.7773 59.7117 10.7227C59.8393 10.4857 59.9578 10.3672 60.0672 10.3672C60.1766 10.3672 60.2859 10.3854 60.3953 10.4219C60.5229 10.4583 60.6505 10.4948 60.7781 10.5312C60.9057 10.5677 61.0242 10.5768 61.1336 10.5586C61.2247 10.5404 61.3432 10.4948 61.4891 10.4219C61.6349 10.3307 61.7625 10.3763 61.8719 10.5586C61.6714 10.7227 61.5164 10.8138 61.407 10.832C61.2977 10.8503 61.1792 10.8503 61.0516 10.832C60.9786 10.832 60.9057 10.8229 60.8328 10.8047C60.7599 10.7865 60.687 10.7865 60.6141 10.8047C60.5229 10.8047 60.4318 10.8411 60.3406 10.9141C60.2677 10.9688 60.1948 10.9961 60.1219 10.9961ZM58.5633 11.1328C58.3628 11.1693 58.2078 11.2604 58.0984 11.4062C58.0073 11.5339 57.907 11.6615 57.7977 11.7891C57.7247 11.9531 57.6792 12.1445 57.6609 12.3633C57.6427 12.5638 57.5516 12.6914 57.3875 12.7461C57.3146 12.4727 57.2964 12.2539 57.3328 12.0898C57.3875 11.9076 57.4148 11.7253 57.4148 11.543C57.4331 11.3789 57.4331 11.2148 57.4148 11.0508C57.3966 10.8685 57.4331 10.6953 57.5242 10.5312C57.7794 10.4766 57.9161 10.4857 57.9344 10.5586C57.9708 10.6315 58.0346 10.6862 58.1258 10.7227C58.2352 10.7591 58.3172 10.7409 58.3719 10.668C58.4448 10.5768 58.5268 10.513 58.618 10.4766C58.8549 10.349 59.0737 10.3763 59.2742 10.5586C59.3471 10.6497 59.4109 10.7044 59.4656 10.7227C59.5203 10.7227 59.5385 10.7591 59.5203 10.832C59.5203 10.9232 59.4474 10.9688 59.3016 10.9688C59.1557 10.9688 59.0372 10.9688 58.9461 10.9688C58.7456 11.0234 58.618 11.0781 58.5633 11.1328ZM76.6922 12.2266C76.5646 12.1536 76.5372 12.0625 76.6102 11.9531C76.6831 11.8255 76.7924 11.7526 76.9383 11.7344C77.0659 11.7161 77.1844 11.7253 77.2938 11.7617C77.4214 11.7982 77.5672 11.8164 77.7313 11.8164C77.8589 11.8164 77.9773 11.8164 78.0867 11.8164C78.2143 11.8164 78.3237 11.862 78.4148 11.9531C78.506 12.026 78.5516 12.1081 78.5516 12.1992C78.5698 12.2904 78.5607 12.3906 78.5242 12.5C78.4878 12.6094 78.4422 12.7279 78.3875 12.8555C78.351 12.9648 78.3328 13.0742 78.3328 13.1836C78.2964 13.2201 78.2508 13.2474 78.1961 13.2656C78.1414 13.2839 78.0867 13.3203 78.032 13.375C77.9409 13.3203 77.9135 13.2474 77.95 13.1562C77.9865 13.0651 78.0047 12.9831 78.0047 12.9102C78.0229 12.819 78.0138 12.737 77.9773 12.6641C77.9591 12.5911 77.95 12.5182 77.95 12.4453C77.8042 12.263 77.6128 12.1992 77.3758 12.2539C77.157 12.2904 76.9292 12.2812 76.6922 12.2266ZM69.3641 13.5117C69.3641 13.4206 69.3732 13.3385 69.3914 13.2656C69.4279 13.1745 69.4188 13.0833 69.3641 12.9922C69.4005 12.8464 69.4096 12.6914 69.3914 12.5273C69.3914 12.3633 69.4279 12.2357 69.5008 12.1445C69.5372 12.0534 69.6102 11.9805 69.7195 11.9258C69.8289 11.8529 69.9383 11.8164 70.0477 11.8164C70.1753 11.7982 70.2846 11.8164 70.3758 11.8711C70.4852 11.9076 70.5581 11.9896 70.5945 12.1172C70.5216 12.1901 70.4305 12.2448 70.3211 12.2812C70.2299 12.2995 70.1388 12.3268 70.0477 12.3633C70.0659 12.6732 70.0568 12.9831 70.0203 13.293C70.0021 13.6029 69.9747 13.931 69.9383 14.2773C69.7924 14.332 69.7104 14.3594 69.6922 14.3594C69.674 14.3594 69.6557 14.3503 69.6375 14.332C69.5828 14.2227 69.519 14.0951 69.4461 13.9492C69.3914 13.8034 69.3641 13.6576 69.3641 13.5117ZM75.6258 28.1406C75.5346 28.1589 75.4526 28.1406 75.3797 28.0859C75.325 28.0312 75.2612 28.0039 75.1883 28.0039C75.0424 27.9857 74.9331 28.0039 74.8602 28.0586C74.7872 28.1133 74.7052 28.1589 74.6141 28.1953C74.0307 28.1771 73.4292 28.1771 72.8094 28.1953C72.2078 28.1953 71.6336 28.1042 71.0867 27.9219C71.032 27.8307 70.9773 27.7487 70.9227 27.6758C70.868 27.6029 70.8042 27.5208 70.7313 27.4297C70.6948 27.3568 70.6401 27.2747 70.5672 27.1836C70.4943 27.0742 70.4487 26.974 70.4305 26.8828C70.4305 26.8099 70.4487 26.7552 70.4852 26.7188C70.5216 26.6823 70.549 26.6367 70.5672 26.582C70.6036 26.4362 70.6036 26.2721 70.5672 26.0898C70.549 25.9076 70.5125 25.7708 70.4578 25.6797C70.3667 25.5521 70.2573 25.4701 70.1297 25.4336C70.0021 25.3789 69.8836 25.2969 69.7742 25.1875C69.7013 24.9323 69.6284 24.6953 69.5555 24.4766C69.4643 24.3854 69.3732 24.3125 69.282 24.2578C69.1909 24.1849 69.0633 24.1302 68.8992 24.0938C68.7352 24.0026 68.6167 23.8932 68.5438 23.7656C68.4891 23.638 68.4161 23.474 68.325 23.2734C68.2521 23.1458 68.1701 23.0365 68.0789 22.9453C68.006 22.8359 67.9695 22.6901 67.9695 22.5078C67.9695 22.4167 67.9786 22.3346 67.9969 22.2617C68.0333 22.1706 68.0424 22.0794 68.0242 21.9883C68.006 21.8607 67.9422 21.7331 67.8328 21.6055C67.7234 21.4779 67.5776 21.4232 67.3953 21.4414C67.2495 21.3685 67.1401 21.2227 67.0672 21.0039C67.0125 20.7852 66.9396 20.6029 66.8484 20.457C66.7026 20.1471 66.5203 19.8646 66.3016 19.6094C66.1193 19.2995 65.9643 18.9987 65.8367 18.707C65.7091 18.4154 65.5451 18.1419 65.3445 17.8867C65.2898 17.7773 65.226 17.668 65.1531 17.5586C65.0984 17.668 65.062 17.7865 65.0438 17.9141C65.0438 18.0234 65.0255 18.151 64.9891 18.2969C64.9526 18.4427 64.907 18.5977 64.8523 18.7617C64.7977 18.9258 64.7794 19.0625 64.7977 19.1719C64.8706 19.3906 64.8979 19.5273 64.8797 19.582C64.8615 19.6185 64.8523 19.6641 64.8523 19.7188C64.8341 19.8828 64.8341 20.0651 64.8523 20.2656C64.8706 20.4661 64.8706 20.6576 64.8523 20.8398C64.7977 21.2591 64.7977 21.5781 64.8523 21.7969C64.907 22.0156 64.8979 22.2344 64.825 22.4531C64.7339 22.6172 64.6883 22.7174 64.6883 22.7539C64.6883 22.7904 64.6792 22.8268 64.6609 22.8633C64.6245 22.9544 64.5789 23.0365 64.5242 23.1094C64.4695 23.1641 64.424 23.2461 64.3875 23.3555C64.3693 23.4102 64.351 23.4831 64.3328 23.5742C64.3328 23.6654 64.3419 23.7474 64.3602 23.8203C64.3602 23.9115 64.3875 23.9844 64.4422 24.0391C64.4969 24.0938 64.5333 24.1484 64.5516 24.2031C64.5698 24.2943 64.5698 24.3945 64.5516 24.5039C64.5516 24.6133 64.5516 24.7318 64.5516 24.8594C64.5516 24.9688 64.5516 25.0781 64.5516 25.1875C64.5698 25.2969 64.5789 25.3971 64.5789 25.4883C64.5789 25.6341 64.5698 25.8073 64.5516 26.0078C64.5333 26.2083 64.506 26.418 64.4695 26.6367C64.3237 26.8372 64.1141 27.0013 63.8406 27.1289C63.5854 27.2383 63.3029 27.293 62.993 27.293C62.8836 27.2747 62.7651 27.2565 62.6375 27.2383C62.5099 27.2201 62.3914 27.2109 62.282 27.2109C62.2456 27.1927 62.1909 27.1927 62.118 27.2109C62.0633 27.2292 62.0177 27.2292 61.9813 27.2109C61.8901 27.1745 61.8081 27.0742 61.7352 26.9102C61.6805 26.7461 61.5893 26.6458 61.4617 26.6094C61.3341 26.5911 61.2156 26.6276 61.1063 26.7188C61.0151 26.8099 60.924 26.8828 60.8328 26.9375C60.7781 26.974 60.6779 27.0013 60.532 27.0195C60.3862 27.0195 60.2677 27.0104 60.1766 26.9922C60.049 26.9922 59.9122 26.9831 59.7664 26.9648C59.6206 26.9466 59.4656 26.9375 59.3016 26.9375C59.0464 26.901 58.782 26.9102 58.5086 26.9648C58.2534 27.0013 58.0529 26.974 57.907 26.8828C57.8341 26.7917 57.7794 26.7461 57.743 26.7461C57.7065 26.7461 57.6701 26.7279 57.6336 26.6914C57.5607 26.6549 57.506 26.6003 57.4695 26.5273C57.4331 26.4362 57.3693 26.3633 57.2781 26.3086C57.2417 26.1992 57.2234 26.0716 57.2234 25.9258C57.2234 25.7799 57.2326 25.6341 57.2508 25.4883C57.269 25.306 57.269 25.1237 57.2508 24.9414C57.2508 24.7591 57.2781 24.6042 57.3328 24.4766C57.3693 24.4036 57.4148 24.3398 57.4695 24.2852C57.5424 24.2122 57.5789 24.1211 57.5789 24.0117C57.5789 23.957 57.5607 23.9023 57.5242 23.8477C57.4878 23.793 57.4513 23.7474 57.4148 23.7109C57.3784 23.5833 57.3693 23.4466 57.3875 23.3008C57.4057 23.1549 57.4513 23.0365 57.5242 22.9453C57.6154 22.7812 57.7156 22.6354 57.825 22.5078C57.9526 22.3802 58.0164 22.1706 58.0164 21.8789C58.0164 21.7695 57.9891 21.6693 57.9344 21.5781C57.8797 21.487 57.8341 21.3958 57.7977 21.3047C57.7612 21.2135 57.7247 21.1406 57.6883 21.0859C57.6701 21.0312 57.6518 20.9766 57.6336 20.9219C57.6154 20.776 57.6154 20.6393 57.6336 20.5117C57.6701 20.3841 57.6883 20.2565 57.6883 20.1289C57.6701 19.819 57.6701 19.582 57.6883 19.418C57.7065 19.2539 57.7247 19.0807 57.743 18.8984C57.743 18.8255 57.7339 18.7526 57.7156 18.6797C57.7156 18.6068 57.7247 18.5339 57.743 18.4609C57.7794 18.3516 57.8432 18.2513 57.9344 18.1602C58.0255 18.069 58.0802 17.9414 58.0984 17.7773C58.0984 17.6497 58.0893 17.5221 58.0711 17.3945C58.0529 17.2487 58.0255 17.1302 57.9891 17.0391C57.9526 16.9479 57.907 16.8659 57.8523 16.793C57.7977 16.7201 57.7521 16.6289 57.7156 16.5195C57.6792 16.3737 57.6701 16.2188 57.6883 16.0547C57.7247 15.8906 57.7521 15.7083 57.7703 15.5078C57.7885 15.3438 57.7885 15.1706 57.7703 14.9883C57.7703 14.806 57.7885 14.6419 57.825 14.4961C57.8432 14.4232 57.8615 14.3503 57.8797 14.2773C57.9161 14.2044 57.9435 14.1315 57.9617 14.0586C57.9617 14.0039 57.9526 13.9492 57.9344 13.8945C57.9344 13.8398 57.9435 13.776 57.9617 13.7031C58.0529 13.3021 58.1076 12.9557 58.1258 12.6641C58.1622 12.3724 58.2898 12.099 58.5086 11.8438C58.618 11.8073 58.7182 11.7526 58.8094 11.6797C58.9005 11.6068 58.9917 11.5521 59.0828 11.5156C59.174 11.4792 59.3016 11.4609 59.4656 11.4609C59.6297 11.4609 59.7846 11.4518 59.9305 11.4336C60.2586 11.4154 60.5594 11.4062 60.8328 11.4062C61.1245 11.4062 61.4344 11.4154 61.7625 11.4336C61.8901 11.4518 61.9995 11.4609 62.0906 11.4609C62.2 11.4427 62.2911 11.4427 62.3641 11.4609C62.4188 11.4792 62.4643 11.5156 62.5008 11.5703C62.5555 11.625 62.6193 11.6706 62.6922 11.707C62.9839 11.7617 63.1388 11.7891 63.157 11.7891C63.2482 11.7891 63.312 11.7708 63.3484 11.7344C63.3849 11.6797 63.4487 11.6432 63.5398 11.625C63.6857 11.5885 63.868 11.5885 64.0867 11.625C64.3237 11.6615 64.5151 11.7253 64.6609 11.8164C64.7156 11.8529 64.7703 11.9076 64.825 11.9805C64.8979 12.0534 64.9617 12.1263 65.0164 12.1992C65.2169 12.3633 65.381 12.5547 65.5086 12.7734C65.6362 12.9922 65.7729 13.2292 65.9188 13.4844C66.0646 13.7578 66.2013 13.9766 66.3289 14.1406C66.4747 14.2865 66.5932 14.4505 66.6844 14.6328C66.7208 14.724 66.7573 14.806 66.7938 14.8789C66.8302 14.9518 66.8758 15.0247 66.9305 15.0977C66.9669 15.1888 67.0034 15.2799 67.0398 15.3711C67.0945 15.444 67.1401 15.5169 67.1766 15.5898C67.2313 15.681 67.2951 15.7721 67.368 15.8633C67.4409 15.9362 67.5229 16.0182 67.6141 16.1094C67.6505 16.1641 67.6779 16.2188 67.6961 16.2734C67.7143 16.3099 67.7417 16.3555 67.7781 16.4102C67.8328 16.5013 67.8875 16.5833 67.9422 16.6562C67.9969 16.7292 68.0516 16.8112 68.1063 16.9023C68.1063 17.1029 68.1063 17.276 68.1063 17.4219C68.1063 17.5495 68.1427 17.6771 68.2156 17.8047C68.3068 17.9688 68.4526 18.0872 68.6531 18.1602C68.8536 18.2148 69.0268 18.3151 69.1727 18.4609C69.1727 18.5521 69.2091 18.6341 69.282 18.707C69.3549 18.7617 69.4005 18.8529 69.4188 18.9805C69.4188 19.2539 69.4461 19.3997 69.5008 19.418C69.5555 19.4362 69.6193 19.4635 69.6922 19.5C69.838 19.6276 69.9474 19.7643 70.0203 19.9102C70.1115 20.0378 70.2208 20.1745 70.3484 20.3203C70.4214 20.0286 70.4487 19.737 70.4305 19.4453C70.4305 19.1354 70.4396 18.8073 70.4578 18.4609C70.4578 18.3333 70.4487 18.1966 70.4305 18.0508C70.4122 17.8867 70.4214 17.7318 70.4578 17.5859C70.4943 17.4401 70.5763 17.3034 70.7039 17.1758C70.8497 17.0299 70.9135 16.8568 70.8953 16.6562C70.8953 16.5651 70.868 16.5013 70.8133 16.4648C70.7768 16.4102 70.7404 16.3372 70.7039 16.2461C70.6128 16.1003 70.5398 15.9453 70.4852 15.7812C70.4487 15.599 70.4487 15.3893 70.4852 15.1523C70.5034 14.9518 70.5307 14.7513 70.5672 14.5508C70.6036 14.332 70.631 14.1133 70.6492 13.8945C70.6857 13.694 70.6948 13.5026 70.6766 13.3203C70.6766 13.1198 70.7404 12.9284 70.868 12.7461C71.0867 12.6003 71.2143 12.5091 71.2508 12.4727C71.2872 12.418 71.3237 12.3815 71.3602 12.3633C71.4513 12.3268 71.5698 12.3086 71.7156 12.3086C71.8797 12.3086 72.0073 12.3177 72.0984 12.3359C72.4266 12.3359 72.7547 12.3542 73.0828 12.3906C73.4109 12.4271 73.7117 12.4544 73.9852 12.4727C74.2221 12.4727 74.368 12.5 74.4227 12.5547C74.4773 12.5911 74.5411 12.6276 74.6141 12.6641C74.7781 12.6823 74.9331 12.7096 75.0789 12.7461C75.243 12.7826 75.407 12.7917 75.5711 12.7734C75.7534 12.737 75.9083 12.6823 76.0359 12.6094C76.1818 12.5365 76.3276 12.4909 76.4734 12.4727C76.5281 12.4727 76.5737 12.4818 76.6102 12.5C76.6648 12.5182 76.7195 12.5273 76.7742 12.5273C76.8836 12.5273 76.993 12.5182 77.1023 12.5C77.2117 12.4818 77.312 12.4909 77.4031 12.5273C77.3849 12.7096 77.394 12.819 77.4305 12.8555C77.4852 12.8919 77.5216 12.9375 77.5398 12.9922C77.4305 13.3203 77.3758 13.5664 77.3758 13.7305C77.394 13.8763 77.4031 14.0312 77.4031 14.1953C77.3849 14.5599 77.3849 14.9336 77.4031 15.3164C77.4214 15.681 77.4214 16.0456 77.4031 16.4102C77.3667 16.8659 77.3302 17.3307 77.2938 17.8047C77.2755 18.2604 77.2755 18.6979 77.2938 19.1172C77.2938 19.2995 77.3029 19.5273 77.3211 19.8008C77.3393 20.0742 77.3211 20.2839 77.2664 20.4297C77.2299 20.5208 77.1661 20.6029 77.075 20.6758C77.0021 20.7305 76.9474 20.8034 76.9109 20.8945C76.8745 20.9674 76.838 21.0677 76.8016 21.1953C76.7833 21.3229 76.7742 21.4414 76.7742 21.5508C76.7924 21.6602 76.838 21.7604 76.9109 21.8516C76.9839 21.9427 77.0385 22.043 77.075 22.1523C77.1115 22.2435 77.1297 22.3711 77.1297 22.5352C77.1297 22.6992 77.1206 22.8542 77.1023 23C77.0841 23.237 77.075 23.4466 77.075 23.6289C77.075 23.8112 77.0659 24.0117 77.0477 24.2305C77.0477 24.3216 77.0568 24.4128 77.075 24.5039C77.1115 24.5768 77.1206 24.6406 77.1023 24.6953C77.0841 24.7865 77.0294 24.8685 76.9383 24.9414C76.8654 24.9961 76.8198 25.069 76.8016 25.1602C76.7833 25.2695 76.8016 25.3789 76.8563 25.4883C76.9109 25.5794 76.9474 25.6888 76.9656 25.8164C76.9656 25.8893 76.9565 25.9622 76.9383 26.0352C76.9201 26.1081 76.9109 26.181 76.9109 26.2539C76.9109 26.3086 76.9109 26.3724 76.9109 26.4453C76.9109 26.5 76.8927 26.5456 76.8563 26.582C76.838 26.6732 76.7833 26.7734 76.6922 26.8828C76.6193 26.974 76.5646 27.0651 76.5281 27.1562C76.4734 27.2474 76.4188 27.3477 76.3641 27.457C76.3094 27.5664 76.2547 27.6576 76.2 27.7305C76.1635 27.7852 76.0815 27.8672 75.9539 27.9766C75.8263 28.0859 75.7169 28.1406 75.6258 28.1406ZM59.2469 12.7461C59.1375 12.8919 59.0464 13.1198 58.9734 13.4297C58.9188 13.7214 58.9461 13.9674 59.0555 14.168C59.2742 14.1315 59.4109 14.0221 59.4656 13.8398C59.5385 13.6576 59.6388 13.5026 59.7664 13.375C59.894 13.3021 60.0581 13.2474 60.2586 13.2109C60.4044 12.974 60.4044 12.7917 60.2586 12.6641C60.1128 12.5547 59.9396 12.5182 59.7391 12.5547C59.5385 12.5911 59.3745 12.6549 59.2469 12.7461ZM59.4109 23.2188C59.3745 23.1458 59.3563 23.0638 59.3563 22.9727C59.3745 22.8815 59.3836 22.7995 59.3836 22.7266C59.3836 22.6536 59.3745 22.5898 59.3563 22.5352C59.338 22.4622 59.2742 22.4167 59.1648 22.3984C59.1466 22.4349 59.101 22.5352 59.0281 22.6992C58.9734 22.8451 58.937 22.9362 58.9188 22.9727C58.8823 23.1185 58.9279 23.2096 59.0555 23.2461C59.1831 23.2643 59.3016 23.2552 59.4109 23.2188ZM58.8914 14.9609C58.8914 15.0885 58.8914 15.2344 58.8914 15.3984C58.8914 15.5625 58.9552 15.6628 59.0828 15.6992C59.174 15.6081 59.2469 15.4805 59.3016 15.3164C59.3563 15.1341 59.3289 14.9974 59.2195 14.9062C59.0555 14.8698 58.9461 14.888 58.8914 14.9609ZM59.5203 25.9531C59.6297 25.9349 59.7026 25.8984 59.7391 25.8438C59.7755 25.7708 59.7755 25.6979 59.7391 25.625C59.7208 25.5521 59.6753 25.4974 59.6023 25.4609C59.5294 25.4245 59.4383 25.4336 59.3289 25.4883C59.2378 25.3424 59.1557 25.1784 59.0828 24.9961C59.0099 24.8138 58.9917 24.6133 59.0281 24.3945C58.8641 24.4492 58.7365 24.6133 58.6453 24.8867C58.5724 25.1602 58.5542 25.4245 58.5906 25.6797C58.6271 25.8255 58.6909 25.8984 58.782 25.8984C58.8732 25.8802 58.9734 25.8802 59.0828 25.8984C59.174 25.8984 59.256 25.9167 59.3289 25.9531C59.4018 25.9714 59.4656 25.9714 59.5203 25.9531ZM74.1766 13.5938C74.1219 13.6302 74.0854 13.7031 74.0672 13.8125C74.049 13.9219 74.0763 13.9948 74.1492 14.0312C74.2404 14.1042 74.3406 14.1042 74.45 14.0312C74.5594 13.9583 74.5685 13.8581 74.4773 13.7305C74.4227 13.7122 74.368 13.694 74.3133 13.6758C74.2768 13.6393 74.2313 13.612 74.1766 13.5938ZM71.907 13.8945C71.907 14.0039 71.907 14.1315 71.907 14.2773C71.907 14.4232 71.907 14.569 71.907 14.7148C71.907 14.8424 71.9253 14.9609 71.9617 15.0703C71.9982 15.1615 72.062 15.2161 72.1531 15.2344C72.2807 15.1068 72.3445 14.9427 72.3445 14.7422C72.3628 14.5234 72.3901 14.3411 72.4266 14.1953C72.5542 14.1042 72.7 14.0495 72.8641 14.0312C73.0464 13.9948 73.2286 13.9674 73.4109 13.9492C73.4474 13.9128 73.4656 13.8581 73.4656 13.7852C73.4656 13.694 73.4474 13.6302 73.4109 13.5938C73.2104 13.5573 73.0008 13.5482 72.782 13.5664C72.5815 13.5664 72.3536 13.5391 72.0984 13.4844C71.9708 13.5026 71.907 13.5482 71.907 13.6211C71.907 13.694 71.907 13.7852 71.907 13.8945ZM73.7938 26.8281C73.812 26.7552 73.812 26.6823 73.7938 26.6094C73.7938 26.5182 73.7755 26.4544 73.7391 26.418C73.6479 26.3268 73.5385 26.2904 73.4109 26.3086C73.2833 26.3086 73.1557 26.2904 73.0281 26.2539C72.8641 26.2174 72.7365 26.1536 72.6453 26.0625C72.5724 25.9714 72.5086 25.8711 72.4539 25.7617C72.3992 25.6523 72.3354 25.543 72.2625 25.4336C72.1896 25.306 72.0893 25.2057 71.9617 25.1328C71.9253 25.1328 71.8706 25.1328 71.7977 25.1328C71.743 25.1146 71.6974 25.0872 71.6609 25.0508C71.5151 25.1602 71.4878 25.2878 71.5789 25.4336C71.6701 25.5612 71.7339 25.6888 71.7703 25.8164C71.825 25.9805 71.8523 26.1445 71.8523 26.3086C71.8706 26.4544 71.907 26.582 71.9617 26.6914C72.1258 26.8372 72.3263 26.9102 72.5633 26.9102C72.8185 26.9102 73.0464 26.9284 73.2469 26.9648C73.338 26.9284 73.4292 26.9102 73.5203 26.9102C73.6297 26.8919 73.7208 26.8646 73.7938 26.8281ZM75.1883 26.9922C75.243 26.8281 75.2339 26.7188 75.1609 26.6641C74.9057 26.6823 74.7417 26.6914 74.6688 26.6914C74.6141 26.6732 74.5867 26.6914 74.5867 26.7461C74.5867 26.8919 74.6596 26.9922 74.8055 27.0469C74.9695 27.1016 75.0971 27.0833 75.1883 26.9922ZM56.9227 13.2383C57.0685 13.1654 57.1961 13.1654 57.3055 13.2383C57.4331 13.293 57.5151 13.3659 57.5516 13.457C57.5151 13.694 57.4786 13.931 57.4422 14.168C57.424 14.3867 57.4148 14.6237 57.4148 14.8789C57.4148 15.0977 57.351 15.2617 57.2234 15.3711C57.1323 15.4076 57.0503 15.4076 56.9773 15.3711C56.9227 15.3164 56.8771 15.2708 56.8406 15.2344C56.8042 14.9974 56.8133 14.7331 56.868 14.4414C56.9409 14.1497 56.9318 13.8763 56.8406 13.6211C56.8589 13.5482 56.868 13.4753 56.868 13.4023C56.868 13.3294 56.8862 13.2747 56.9227 13.2383ZM69.4461 15.1797C69.519 15.1432 69.5646 15.0977 69.5828 15.043C69.6193 14.9701 69.6831 14.9336 69.7742 14.9336C69.993 15.1888 70.0477 15.4896 69.9383 15.8359C69.6466 15.8724 69.4826 15.8177 69.4461 15.6719C69.4279 15.5078 69.4279 15.3438 69.4461 15.1797ZM77.2391 26.5C77.312 26.4635 77.3758 26.4635 77.4305 26.5C77.5034 26.5365 77.5581 26.5729 77.5945 26.6094C77.5034 26.8099 77.4396 26.9284 77.4031 26.9648C77.3667 27.0013 77.3029 27.0013 77.2117 26.9648C77.1753 26.9102 77.157 26.8372 77.157 26.7461C77.1753 26.6367 77.2026 26.5547 77.2391 26.5ZM65.2898 26.3633C65.4174 26.3086 65.4721 26.3815 65.4539 26.582C65.4357 26.7643 65.4357 26.9193 65.4539 27.0469C65.4721 27.2656 65.5086 27.457 65.5633 27.6211C65.618 27.7852 65.5997 27.9583 65.5086 28.1406C65.3992 28.25 65.2352 28.2865 65.0164 28.25C64.7977 28.1953 64.5971 28.1771 64.4148 28.1953C64.1961 28.3411 64.0047 28.4232 63.8406 28.4414C63.6766 28.4596 63.5034 28.487 63.3211 28.5234C63.0112 28.5599 62.6922 28.5326 62.3641 28.4414C62.0542 28.3503 61.7443 28.2591 61.4344 28.168C61.3979 28.0768 61.4161 28.0221 61.4891 28.0039C61.5802 27.9857 61.644 27.9583 61.6805 27.9219C61.881 27.9219 62.0815 27.9036 62.282 27.8672C62.5008 27.8125 62.7286 27.7943 62.9656 27.8125C63.075 27.8125 63.1753 27.8307 63.2664 27.8672C63.3758 27.8854 63.4852 27.8945 63.5945 27.8945C63.7221 27.8945 63.8406 27.8854 63.95 27.8672C64.0776 27.849 64.1961 27.849 64.3055 27.8672C64.5607 27.9583 64.743 27.9766 64.8523 27.9219C64.9617 27.849 65.0346 27.7487 65.0711 27.6211C65.0893 27.5664 65.0893 27.5117 65.0711 27.457C65.0711 27.4023 65.0711 27.3477 65.0711 27.293C65.0893 27.1107 65.1167 26.9375 65.1531 26.7734C65.2078 26.6094 65.2534 26.4727 65.2898 26.3633ZM76.993 27.3477C77.0841 27.3477 77.1479 27.3659 77.1844 27.4023C77.2208 27.4388 77.2573 27.4753 77.2938 27.5117C77.2573 27.6576 77.2299 27.8216 77.2117 28.0039C77.1935 28.1862 77.1844 28.3776 77.1844 28.5781C77.1297 28.8151 77.0568 28.9701 76.9656 29.043C76.8745 29.0977 76.7924 29.125 76.7195 29.125C76.6102 29.125 76.5281 29.0885 76.4734 29.0156C76.437 28.9245 76.3458 28.8971 76.2 28.9336C76.0359 29.1341 75.8081 29.207 75.5164 29.1523C75.3706 28.9518 75.3888 28.7969 75.5711 28.6875C75.7716 28.5781 75.963 28.5143 76.1453 28.4961C76.2 28.4779 76.282 28.4232 76.3914 28.332C76.519 28.2227 76.601 28.1406 76.6375 28.0859C76.7286 27.9583 76.7742 27.8398 76.7742 27.7305C76.7924 27.6211 76.8654 27.4935 76.993 27.3477ZM57.7156 27.4023C57.8615 27.4206 58.0073 27.4206 58.1531 27.4023C58.3172 27.3841 58.4448 27.4297 58.5359 27.5391C58.2625 27.7031 58.0164 27.8216 57.7977 27.8945C57.5971 27.9492 57.3693 27.931 57.1141 27.8398C57.0411 27.7487 56.9865 27.6484 56.95 27.5391C56.9135 27.4115 56.9409 27.3112 57.032 27.2383C57.1414 27.2383 57.2508 27.2656 57.3602 27.3203C57.4695 27.3568 57.588 27.3841 57.7156 27.4023ZM74.4227 28.6875C74.5138 28.7057 74.6141 28.7604 74.7234 28.8516C74.851 28.9427 74.8966 29.0339 74.8602 29.125C74.769 29.2344 74.6414 29.2891 74.4773 29.2891C74.3133 29.2708 74.1401 29.2617 73.9578 29.2617C73.812 29.2435 73.6753 29.2526 73.5477 29.2891C73.4383 29.3073 73.3198 29.2982 73.1922 29.2617C73.0828 29.2253 73.019 29.1615 73.0008 29.0703C73.0008 28.9792 73.0464 28.8971 73.1375 28.8242C73.2286 28.7878 73.338 28.7786 73.4656 28.7969C73.5932 28.7969 73.7299 28.7878 73.8758 28.7695C73.9669 28.7695 74.0581 28.7513 74.1492 28.7148C74.2404 28.6784 74.3315 28.6693 74.4227 28.6875ZM101.416 26.3359C101.508 26.5182 101.544 26.6914 101.526 26.8555C101.526 27.0195 101.444 27.1654 101.28 27.293C101.243 27.3112 101.17 27.3477 101.061 27.4023C100.97 27.457 100.906 27.4844 100.87 27.4844C100.705 27.4661 100.596 27.4753 100.541 27.5117C100.505 27.5299 100.459 27.5482 100.405 27.5664C100.314 27.6029 100.213 27.6302 100.104 27.6484C99.9945 27.6667 99.8852 27.6758 99.7758 27.6758C99.5935 27.694 99.4021 27.6849 99.2016 27.6484C99.001 27.612 98.8096 27.612 98.6273 27.6484C98.4451 27.6849 98.281 27.7578 98.1352 27.8672C98.0076 27.9766 97.8982 28.0768 97.807 28.168C97.6247 28.2227 97.406 28.2956 97.1508 28.3867C96.9138 28.4596 96.6951 28.5143 96.4945 28.5508C96.3305 28.5872 96.1482 28.569 95.9477 28.4961C95.7471 28.4049 95.6104 28.2956 95.5375 28.168C95.501 28.1133 95.4646 28.0495 95.4281 27.9766C95.4099 27.8854 95.3917 27.8034 95.3734 27.7305C95.337 27.5299 95.2914 27.4115 95.2367 27.375C95.182 27.3203 95.1365 27.2656 95.1 27.2109C95.0635 27.1745 95.0453 27.1289 95.0453 27.0742C95.0453 27.0013 95.0271 26.9375 94.9906 26.8828C94.9542 26.8281 94.9177 26.7826 94.8812 26.7461C94.8448 26.6914 94.8174 26.6276 94.7992 26.5547C94.7628 26.5182 94.7445 26.4727 94.7445 26.418C94.7445 26.3633 94.7263 26.3086 94.6898 26.2539C94.6534 26.1992 94.6169 26.1445 94.5805 26.0898C94.544 26.0169 94.5258 25.9349 94.5258 25.8438C94.4164 25.6979 94.3253 25.5339 94.2523 25.3516C94.1977 25.1693 94.0974 25.0326 93.9516 24.9414C93.824 24.9596 93.7055 24.9688 93.5961 24.9688C93.5049 24.9505 93.3956 24.9414 93.268 24.9414C93.1221 24.9596 92.9763 24.987 92.8305 25.0234C92.7029 25.0417 92.5661 25.069 92.4203 25.1055C92.3474 25.1055 92.2745 25.1055 92.2016 25.1055C92.1469 25.0872 92.074 25.0781 91.9828 25.0781C91.8917 25.0599 91.8005 25.0599 91.7094 25.0781C91.6365 25.0781 91.5635 25.069 91.4906 25.0508C91.2536 24.9779 91.0987 24.9505 91.0258 24.9688C90.9529 24.987 90.8891 25.0052 90.8344 25.0234C90.7797 25.0417 90.725 25.069 90.6703 25.1055C90.6339 25.1419 90.5883 25.1693 90.5336 25.1875C90.4424 25.224 90.3331 25.2331 90.2055 25.2148C90.0961 25.1966 89.9867 25.1875 89.8773 25.1875C89.7497 25.1875 89.6221 25.1966 89.4945 25.2148C89.3852 25.2331 89.2576 25.2513 89.1117 25.2695C89.0206 25.2878 88.9203 25.2969 88.8109 25.2969C88.7016 25.2786 88.6013 25.2786 88.5102 25.2969C88.2185 25.3333 87.9086 25.3607 87.5805 25.3789C87.2523 25.3971 86.9333 25.4245 86.6234 25.4609C86.5141 25.5703 86.4411 25.6979 86.4047 25.8438C86.3682 25.9896 86.3135 26.1354 86.2406 26.2812C86.2042 26.3359 86.1677 26.3906 86.1312 26.4453C86.0948 26.4818 86.0674 26.5365 86.0492 26.6094C86.0128 26.6823 86.0036 26.7643 86.0219 26.8555C86.0583 26.9284 86.0674 27.0104 86.0492 27.1016C86.0492 27.1745 86.0036 27.3112 85.9125 27.5117C85.8214 27.7122 85.7484 27.849 85.6937 27.9219C85.6208 27.9948 85.5023 28.0677 85.3383 28.1406C85.1924 28.1953 85.0466 28.2135 84.9008 28.1953C84.6273 28.1589 84.4086 28.1862 84.2445 28.2773C84.0805 28.3685 83.8982 28.4323 83.6977 28.4688C83.5701 28.4688 83.4607 28.4688 83.3695 28.4688C83.2784 28.4505 83.1599 28.4323 83.0141 28.4141C82.9411 28.3411 82.8591 28.2865 82.768 28.25C82.6951 28.2135 82.613 28.1771 82.5219 28.1406C82.5036 28.0859 82.4672 28.0312 82.4125 27.9766C82.3578 27.9219 82.3305 27.8672 82.3305 27.8125C82.3305 27.6849 82.3669 27.5573 82.4398 27.4297C82.531 27.2839 82.5948 27.1471 82.6312 27.0195C82.6677 26.9466 82.6859 26.8828 82.6859 26.8281C82.6859 26.7552 82.7042 26.6823 82.7406 26.6094C82.8135 26.4271 82.8956 26.2357 82.9867 26.0352C83.0961 25.8346 83.169 25.6523 83.2055 25.4883C83.0049 25.4883 82.8135 25.5065 82.6312 25.543C82.449 25.5794 82.2667 25.5794 82.0844 25.543C81.9932 25.5065 81.8747 25.4792 81.7289 25.4609C81.6013 25.4245 81.5193 25.3698 81.4828 25.2969C81.4464 25.224 81.3917 25.1237 81.3187 24.9961C81.2641 24.8503 81.2367 24.7135 81.2367 24.5859C81.2549 24.4766 81.3005 24.3854 81.3734 24.3125C81.4464 24.2214 81.4828 24.1211 81.4828 24.0117C81.4646 23.9206 81.419 23.8385 81.3461 23.7656C81.2914 23.6927 81.2549 23.5924 81.2367 23.4648C81.2185 23.319 81.2549 23.1914 81.3461 23.082C81.4372 22.9727 81.501 22.8724 81.5375 22.7812C81.738 22.6719 81.9568 22.599 82.1937 22.5625C82.449 22.5078 82.7133 22.4714 82.9867 22.4531C83.2602 22.4349 83.5336 22.4258 83.807 22.4258C84.0805 22.4258 84.3357 22.4076 84.5727 22.3711C84.7003 22.1341 84.8096 21.888 84.9008 21.6328C84.9919 21.3776 85.0922 21.1224 85.2016 20.8672C85.3839 20.7943 85.5297 20.7031 85.6391 20.5938C85.7484 20.4844 85.8487 20.3568 85.9398 20.2109C85.9398 20.0833 85.949 19.9648 85.9672 19.8555C86.0036 19.7461 86.0128 19.6367 85.9945 19.5273C85.9398 19.2357 85.949 19.0169 86.0219 18.8711C86.0948 18.7253 86.1586 18.5977 86.2133 18.4883C86.2497 18.3971 86.2771 18.306 86.2953 18.2148C86.3318 18.1237 86.3682 18.0326 86.4047 17.9414C86.5141 17.7227 86.6052 17.5404 86.6781 17.3945C86.751 17.2305 86.8878 17.1029 87.0883 17.0117C87.1794 16.8659 87.2523 16.7109 87.307 16.5469C87.3799 16.3828 87.3982 16.2005 87.3617 16C87.2888 15.7995 87.2706 15.6628 87.307 15.5898C87.3435 15.5169 87.3799 15.4349 87.4164 15.3438C87.4529 15.2708 87.4711 15.1979 87.4711 15.125C87.4893 15.0339 87.5076 14.9609 87.5258 14.9062C87.5622 14.8698 87.5896 14.8242 87.6078 14.7695C87.626 14.7148 87.6534 14.6693 87.6898 14.6328C87.7628 14.3594 87.8266 14.168 87.8812 14.0586C87.9542 13.931 88.0089 13.8034 88.0453 13.6758C87.8995 13.4753 87.7445 13.2383 87.5805 12.9648C87.4164 12.6914 87.3799 12.3997 87.4711 12.0898C87.7445 11.944 88.018 11.8164 88.2914 11.707C88.5831 11.5977 88.8656 11.4701 89.1391 11.3242C89.2302 11.3607 89.294 11.3607 89.3305 11.3242C89.3852 11.2695 89.4398 11.2422 89.4945 11.2422C89.5492 11.2422 89.5948 11.2604 89.6312 11.2969C89.6859 11.3333 89.7315 11.3607 89.768 11.3789C90.0779 11.3789 90.2875 11.3789 90.3969 11.3789C90.5062 11.3607 90.6065 11.2878 90.6977 11.1602C90.7523 11.1055 90.7979 11.0417 90.8344 10.9688C90.8708 10.8776 90.9255 10.7865 90.9984 10.6953C91.0349 10.6406 91.0896 10.6042 91.1625 10.5859C91.2536 10.5495 91.3448 10.513 91.4359 10.4766C91.5271 10.4401 91.6182 10.4036 91.7094 10.3672C91.8005 10.3125 91.919 10.2943 92.0648 10.3125C92.1378 10.2214 92.2107 10.2122 92.2836 10.2852C92.3565 10.3398 92.4203 10.3763 92.475 10.3945C92.5297 10.4128 92.5753 10.4219 92.6117 10.4219C92.6664 10.4036 92.7211 10.4036 92.7758 10.4219C92.9581 10.4583 93.0948 10.5586 93.1859 10.7227C93.2771 10.8867 93.3956 11.0052 93.5414 11.0781C93.7419 11.4427 93.9424 11.7982 94.143 12.1445C94.3617 12.4727 94.5714 12.8281 94.7719 13.2109C94.863 13.3932 94.9633 13.5664 95.0727 13.7305C95.182 13.8763 95.2914 14.0404 95.4008 14.2227C95.4555 14.332 95.501 14.4414 95.5375 14.5508C95.574 14.6602 95.6286 14.7604 95.7016 14.8516C95.8292 15.0339 95.9477 15.2161 96.057 15.3984C96.1664 15.5807 96.2758 15.7721 96.3852 15.9727C96.4763 16.1185 96.5583 16.2643 96.6312 16.4102C96.7224 16.556 96.7589 16.7383 96.7406 16.957C96.7406 17.0117 96.7224 17.0664 96.6859 17.1211C96.6677 17.1576 96.6677 17.2122 96.6859 17.2852C96.7042 17.4674 96.7771 17.6224 96.9047 17.75C97.0505 17.8594 97.1781 17.987 97.2875 18.1328C97.3604 18.224 97.4151 18.3333 97.4516 18.4609C97.5062 18.5703 97.5701 18.6797 97.643 18.7891C97.7888 19.0625 97.9437 19.3542 98.1078 19.6641C98.2901 19.9557 98.4542 20.2292 98.6 20.4844C98.5635 20.5755 98.5362 20.6758 98.518 20.7852C98.518 20.8945 98.5544 20.9766 98.6273 21.0312C98.7367 21.013 98.8187 21.0312 98.8734 21.0859C98.9281 21.1224 98.9646 21.1862 98.9828 21.2773C99.0193 21.3503 99.0466 21.4323 99.0648 21.5234C99.1013 21.6146 99.1378 21.6875 99.1742 21.7422C99.0831 21.888 99.0375 22.0521 99.0375 22.2344C99.0557 22.3984 99.1924 22.4805 99.4477 22.4805C99.6482 22.918 99.8669 23.3464 100.104 23.7656C100.341 24.1849 100.578 24.6133 100.815 25.0508C100.924 25.2513 101.015 25.4701 101.088 25.707C101.161 25.944 101.271 26.1536 101.416 26.3359ZM83.5336 27.457C83.6794 27.4206 83.7797 27.3203 83.8344 27.1562C83.8891 26.9922 83.8891 26.8372 83.8344 26.6914C83.6521 26.6914 83.5336 26.7826 83.4789 26.9648C83.4424 27.1471 83.4607 27.3112 83.5336 27.457ZM84.5453 24.8047C84.5271 24.6771 84.4633 24.5859 84.3539 24.5312C84.2628 24.4766 84.1534 24.4492 84.0258 24.4492C83.9164 24.4492 83.8161 24.4857 83.725 24.5586C83.6339 24.6315 83.5792 24.7318 83.5609 24.8594C83.7432 24.8594 83.8708 24.9141 83.9437 25.0234C84.0349 25.1146 84.126 25.224 84.2172 25.3516C84.2172 25.4245 84.1898 25.5156 84.1352 25.625C84.0987 25.7161 84.126 25.7982 84.2172 25.8711C84.2901 25.7799 84.3539 25.6615 84.4086 25.5156C84.4815 25.3698 84.5271 25.224 84.5453 25.0781V24.8047ZM88.893 12.4727C88.7107 12.5638 88.6286 12.7188 88.6469 12.9375C88.6651 13.138 88.7562 13.3021 88.9203 13.4297C89.1755 13.3385 89.3122 13.2201 89.3305 13.0742C89.3669 12.9102 89.3943 12.737 89.4125 12.5547C89.376 12.4453 89.3031 12.3906 89.1937 12.3906C89.0844 12.3906 88.9841 12.418 88.893 12.4727ZM91.1352 22.0156C91.2992 21.9427 91.4724 21.9154 91.6547 21.9336C91.837 21.9336 92.0284 21.9245 92.2289 21.9062C92.1378 21.651 92.0284 21.4414 91.9008 21.2773C91.7732 21.1133 91.6911 20.9128 91.6547 20.6758C91.6182 20.5846 91.6182 20.4935 91.6547 20.4023C91.6911 20.293 91.7003 20.1745 91.682 20.0469C91.6638 19.9557 91.5909 19.8372 91.4633 19.6914C91.3357 19.5273 91.2263 19.4271 91.1352 19.3906C90.9529 19.3177 90.8344 19.2266 90.7797 19.1172C90.725 18.9896 90.6794 18.8802 90.643 18.7891C90.5154 18.5339 90.3878 18.2786 90.2602 18.0234C90.1508 17.75 90.0232 17.513 89.8773 17.3125C89.6768 17.7865 89.4672 18.2604 89.2484 18.7344C89.0479 19.2083 88.8565 19.7005 88.6742 20.2109C88.6378 20.2656 88.574 20.3112 88.4828 20.3477C88.3917 20.3659 88.3279 20.4206 88.2914 20.5117C88.2549 20.5664 88.2367 20.6211 88.2367 20.6758C88.2549 20.7305 88.2549 20.7852 88.2367 20.8398C88.2003 21.0404 88.1273 21.25 88.018 21.4688C87.9268 21.6875 87.863 21.9154 87.8266 22.1523C88.0453 22.1523 88.2914 22.1341 88.5648 22.0977C88.8565 22.043 89.1299 22.0156 89.3852 22.0156C89.4216 22.0703 89.4672 22.0977 89.5219 22.0977C89.5948 22.0977 89.6677 22.1159 89.7406 22.1523C89.8318 22.2617 89.932 22.3438 90.0414 22.3984C90.169 22.4349 90.251 22.4622 90.2875 22.4805C90.5245 22.5352 90.6885 22.4896 90.7797 22.3438C90.8708 22.1979 90.9893 22.0885 91.1352 22.0156ZM95.2641 24.2852C95.4099 24.3216 95.501 24.2852 95.5375 24.1758C95.5922 24.0664 95.6013 23.9479 95.5648 23.8203C95.4555 23.7839 95.3734 23.7109 95.3187 23.6016C95.2641 23.4922 95.1547 23.4557 94.9906 23.4922C95.0271 23.638 95.0544 23.793 95.0727 23.957C95.1091 24.1029 95.1729 24.2122 95.2641 24.2852ZM97.9164 26.4453C97.9164 26.3542 97.9073 26.263 97.8891 26.1719C97.8891 26.0807 97.8526 26.0078 97.7797 25.9531C97.6703 25.9896 97.5609 26.0443 97.4516 26.1172C97.3604 26.1719 97.2419 26.2083 97.0961 26.2266C96.9867 26.099 96.8682 25.9896 96.7406 25.8984C96.613 25.8073 96.5219 25.6797 96.4672 25.5156C96.3578 25.4427 96.2576 25.3607 96.1664 25.2695C96.0935 25.1784 96.0115 25.0872 95.9203 24.9961C95.8474 25.0508 95.8109 25.1237 95.8109 25.2148C95.8109 25.2878 95.7927 25.3607 95.7562 25.4336C95.8109 25.5612 95.8839 25.6797 95.975 25.7891C96.0115 25.8802 96.0479 25.9805 96.0844 26.0898C96.1391 26.1992 96.1846 26.2995 96.2211 26.3906C96.2576 26.5547 96.3031 26.7096 96.3578 26.8555C96.4125 26.9831 96.5128 27.0742 96.6586 27.1289C96.9685 26.9102 97.2328 26.7826 97.4516 26.7461C97.6703 26.7096 97.8253 26.6094 97.9164 26.4453ZM85.7484 12.8828C85.6208 12.8646 85.5479 12.7826 85.5297 12.6367C85.5297 12.4909 85.5115 12.3542 85.475 12.2266C85.5115 12.1172 85.5935 12.0716 85.7211 12.0898C85.8487 12.0898 85.9581 12.1081 86.0492 12.1445C86.1586 12.4362 86.1677 12.6458 86.0766 12.7734C86.0036 12.8828 85.8943 12.9193 85.7484 12.8828ZM86.5414 14.1406C86.5414 14.0677 86.5141 13.9948 86.4594 13.9219C86.4229 13.8307 86.3773 13.7578 86.3227 13.7031C86.268 13.6302 86.2224 13.5573 86.1859 13.4844C86.1495 13.4115 86.1404 13.3294 86.1586 13.2383C86.1768 13.1836 86.2224 13.1107 86.2953 13.0195C86.3682 12.9284 86.4411 12.8828 86.5141 12.8828C86.587 12.8646 86.6599 12.8919 86.7328 12.9648C86.8057 13.0195 86.8695 13.1016 86.9242 13.2109C86.9789 13.3021 87.0245 13.3932 87.0609 13.4844C87.1156 13.5755 87.1612 13.6484 87.1977 13.7031C87.1612 13.7578 87.1612 13.8307 87.1977 13.9219C87.2523 13.9948 87.2615 14.0768 87.225 14.168C87.2068 14.2227 87.1703 14.2773 87.1156 14.332C87.0792 14.3867 87.0427 14.4414 87.0062 14.4961C86.9151 14.6419 86.8422 14.806 86.7875 14.9883C86.751 15.1523 86.6872 15.3255 86.5961 15.5078C86.5049 15.6354 86.4229 15.7721 86.35 15.918C86.2771 16.0456 86.1586 16.0456 85.9945 15.918C85.9398 15.7904 85.949 15.681 86.0219 15.5898C86.113 15.4805 86.1768 15.3529 86.2133 15.207C86.3044 14.9154 86.3865 14.7057 86.4594 14.5781C86.5323 14.4323 86.5596 14.2865 86.5414 14.1406ZM85.8852 14.9336C85.794 15.0065 85.712 15.0156 85.6391 14.9609C85.5844 14.888 85.557 14.7969 85.557 14.6875C85.557 14.651 85.5661 14.6055 85.5844 14.5508C85.6208 14.4779 85.6391 14.4049 85.6391 14.332C85.6573 14.2409 85.6573 14.1589 85.6391 14.0859C85.6391 13.9948 85.6664 13.9401 85.7211 13.9219C86.031 14.1771 86.1404 14.3776 86.0492 14.5234C85.9763 14.651 85.9216 14.7878 85.8852 14.9336ZM85.9398 16.957C85.8487 17.0846 85.7211 17.112 85.557 17.0391C85.4841 16.8932 85.5115 16.7292 85.6391 16.5469C85.7849 16.3464 85.9216 16.2643 86.0492 16.3008C86.1404 16.4466 86.1677 16.5286 86.1312 16.5469C86.113 16.5651 86.0857 16.6016 86.0492 16.6562C86.031 16.6927 86.0128 16.7474 85.9945 16.8203C85.9945 16.875 85.9763 16.9206 85.9398 16.957ZM89.057 19.9375C89.2029 19.8281 89.294 19.8464 89.3305 19.9922C89.3852 20.138 89.3852 20.2747 89.3305 20.4023C89.294 20.4935 89.2302 20.6211 89.1391 20.7852C89.0661 20.931 89.0388 21.0495 89.057 21.1406C89.0753 21.2318 89.1117 21.2956 89.1664 21.332C89.2211 21.3503 89.2758 21.3958 89.3305 21.4688C89.2758 21.5964 89.1391 21.6602 88.9203 21.6602C88.7198 21.6602 88.5557 21.6693 88.4281 21.6875C88.4281 21.5964 88.4281 21.5234 88.4281 21.4688C88.4464 21.3958 88.4646 21.3138 88.4828 21.2227C88.5193 21.1315 88.5648 21.0586 88.6195 21.0039C88.6742 20.931 88.7198 20.849 88.7562 20.7578C88.8656 20.5391 88.9203 20.3932 88.9203 20.3203C88.9568 20.2474 88.975 20.1745 88.975 20.1016C88.9932 20.0286 89.0206 19.974 89.057 19.9375ZM89.7406 21.7148C89.6495 21.6419 89.613 21.5781 89.6312 21.5234C89.6677 21.4505 89.7224 21.3958 89.7953 21.3594C89.8682 21.3229 89.9503 21.3138 90.0414 21.332C90.1326 21.3503 90.2055 21.3958 90.2602 21.4688C90.2419 21.5599 90.1872 21.6328 90.0961 21.6875C90.0049 21.7422 89.8865 21.7513 89.7406 21.7148ZM86.6234 27.4297C86.6599 27.5573 86.6508 27.6758 86.5961 27.7852C86.5414 27.8763 86.4958 27.9857 86.4594 28.1133C86.4411 28.2227 86.432 28.3138 86.432 28.3867C86.432 28.4414 86.4138 28.5143 86.3773 28.6055C86.2497 28.7513 86.1768 28.8516 86.1586 28.9062C86.1586 28.9609 86.1404 29.0065 86.1039 29.043C86.0128 29.1159 85.876 29.1615 85.6937 29.1797C85.5115 29.1797 85.3383 29.1979 85.1742 29.2344C85.1195 29.2344 85.0648 29.2435 85.0102 29.2617C84.9555 29.2799 84.9099 29.2982 84.8734 29.3164C84.7823 29.3164 84.682 29.3164 84.5727 29.3164C84.4815 29.3164 84.3995 29.3255 84.3266 29.3438C84.2901 29.362 84.2354 29.3893 84.1625 29.4258C84.1078 29.4622 84.0622 29.4896 84.0258 29.5078C83.9346 29.526 83.8435 29.5169 83.7523 29.4805C83.6794 29.4258 83.6065 29.3893 83.5336 29.3711C83.5336 29.2982 83.5427 29.2435 83.5609 29.207C83.5792 29.1706 83.5883 29.125 83.5883 29.0703C83.6794 28.9974 83.7615 28.9701 83.8344 28.9883C83.9255 29.0065 84.0258 29.0065 84.1352 28.9883C84.2081 28.9883 84.2719 28.9792 84.3266 28.9609C84.3995 28.9245 84.4633 28.8971 84.518 28.8789C84.7549 28.8242 85.0102 28.806 85.2836 28.8242C85.557 28.8242 85.7667 28.7695 85.9125 28.6602C86.0036 28.5872 86.0857 28.4414 86.1586 28.2227C86.2133 28.0221 86.2497 27.9219 86.268 27.9219C86.3044 27.9036 86.3227 27.8763 86.3227 27.8398C86.3591 27.7669 86.3773 27.694 86.3773 27.6211C86.3956 27.5482 86.4411 27.4844 86.5141 27.4297H86.6234ZM96.5219 29.1523C96.6312 29.1159 96.7406 29.0794 96.85 29.043C96.9594 28.9883 97.0779 28.9792 97.2055 29.0156C97.169 29.1615 97.0687 29.2708 96.9047 29.3438C96.7406 29.4167 96.5857 29.4987 96.4398 29.5898C96.294 29.6628 96.1482 29.7448 96.0023 29.8359C95.8747 29.9089 95.7198 29.9635 95.5375 30C95.4464 30.0182 95.3552 30.0273 95.2641 30.0273C95.1729 30.0273 95.1 30.0091 95.0453 29.9727C95.0089 29.8997 94.9906 29.8359 94.9906 29.7812C95.0089 29.7266 95.0362 29.6719 95.0727 29.6172C95.0544 29.599 95.0271 29.4987 94.9906 29.3164C94.9359 29.2253 94.8357 29.1615 94.6898 29.125C94.544 29.0703 94.4255 28.9974 94.3344 28.9062C94.225 28.7969 94.1612 28.6602 94.143 28.4961C94.1247 28.3138 94.1339 28.1224 94.1703 27.9219C94.2615 27.849 94.3344 27.8581 94.3891 27.9492C94.462 28.0404 94.5167 28.1133 94.5531 28.168C94.7354 28.4049 94.8812 28.6146 94.9906 28.7969C95.0818 28.9245 95.1911 29.043 95.3187 29.1523C95.4464 29.2435 95.6013 29.2982 95.7836 29.3164C95.8747 29.3164 95.9659 29.2982 96.057 29.2617C96.1482 29.2253 96.2393 29.1979 96.3305 29.1797L96.5219 29.1523ZM82.5219 28.7422C82.7406 28.7057 82.9411 28.7513 83.1234 28.8789C83.1599 29.043 83.1508 29.1706 83.0961 29.2617C83.0596 29.3529 82.9867 29.4258 82.8773 29.4805C82.7862 29.5169 82.6859 29.526 82.5766 29.5078C82.4854 29.4896 82.4034 29.4349 82.3305 29.3438C82.3305 29.0521 82.3943 28.8516 82.5219 28.7422ZM98.7914 28.5234C99.0284 28.5599 99.2654 28.5326 99.5023 28.4414C99.7393 28.3503 99.9763 28.3138 100.213 28.332C100.213 28.5143 100.122 28.6328 99.9398 28.6875C99.7576 28.7422 99.5844 28.7878 99.4203 28.8242C99.3109 28.8607 99.2198 28.888 99.1469 28.9062C99.0922 28.9245 99.0193 28.9518 98.9281 28.9883C98.7276 29.0247 98.5362 29.0885 98.3539 29.1797C98.1898 29.2708 98.0076 29.2799 97.807 29.207C97.7706 29.1523 97.7523 29.0885 97.7523 29.0156C97.7523 28.9427 97.7432 28.8698 97.725 28.7969C97.8161 28.7057 97.9255 28.6237 98.0531 28.5508C98.1807 28.4596 98.3174 28.3685 98.4633 28.2773C98.5544 28.2773 98.6182 28.3047 98.6547 28.3594C98.7094 28.3958 98.7549 28.4505 98.7914 28.5234Z" fill="black"/>
<path d="M27.2472 40.592C27.4159 40.592 27.5662 40.5553 27.6982 40.482L27.6432 41.725C27.2985 42.011 26.9062 42.154 26.4662 42.154C25.4689 42.154 24.9702 41.736 24.9702 40.9C24.9702 40.7533 24.9849 40.5957 25.0142 40.427L25.2562 39.074C25.2782 38.942 25.2892 38.81 25.2892 38.678C25.2892 38.326 25.1022 38.15 24.7282 38.15C24.3615 38.15 24.0755 38.2747 23.8702 38.524L23.2542 42H21.3842L22.8582 33.651H24.7282L24.1012 37.204C24.5045 36.7713 25.0105 36.555 25.6192 36.555C26.3599 36.555 26.8402 36.72 27.0602 37.05C27.2142 37.27 27.2912 37.5157 27.2912 37.787C27.2912 38.0583 27.2692 38.3077 27.2252 38.535L26.9282 40.174C26.9209 40.218 26.9172 40.2583 26.9172 40.295C26.9172 40.493 27.0272 40.592 27.2472 40.592ZM34.0577 40.306C34.0577 40.4967 34.1531 40.592 34.3437 40.592C34.5417 40.592 34.7067 40.5553 34.8387 40.482L34.7837 41.725C34.4317 42.011 34.0357 42.154 33.5957 42.154C32.7891 42.154 32.3417 41.8607 32.2537 41.274C31.8871 41.8607 31.3481 42.154 30.6367 42.154C29.4341 42.154 28.8327 41.637 28.8327 40.603C28.8327 40.427 28.8511 40.2327 28.8877 40.02L29.1187 38.733C29.2361 38.073 29.5037 37.5487 29.9217 37.16C30.3471 36.764 30.8971 36.566 31.5717 36.566C32.2537 36.566 32.7157 36.7237 32.9577 37.039L33.0127 36.709H34.6847L34.0687 40.174C34.0614 40.218 34.0577 40.262 34.0577 40.306ZM30.8017 39.778C30.7871 39.844 30.7797 39.9357 30.7797 40.053C30.7797 40.1703 30.8347 40.2877 30.9447 40.405C31.0547 40.515 31.2381 40.57 31.4947 40.57C31.7587 40.57 31.9861 40.4673 32.1767 40.262L32.5067 38.414C32.4261 38.2307 32.2354 38.139 31.9347 38.139C31.3701 38.139 31.0401 38.4103 30.9447 38.953L30.8017 39.778ZM39.6079 38.623C39.6079 38.3077 39.4539 38.15 39.1459 38.15C38.8453 38.15 38.5959 38.2637 38.3979 38.491L37.7819 42H35.9119L36.8469 36.709H38.5849L38.4639 37.358C38.8966 36.8227 39.4429 36.555 40.1029 36.555C40.7629 36.555 41.1919 36.7163 41.3899 37.039C41.5146 37.2443 41.5769 37.479 41.5769 37.743C41.5769 38.007 41.5586 38.2527 41.5219 38.48L41.2249 40.174C41.2176 40.218 41.2139 40.2583 41.2139 40.295C41.2139 40.493 41.3239 40.592 41.5439 40.592C41.7126 40.592 41.8629 40.5553 41.9949 40.482L41.9399 41.725C41.5953 42.011 41.2029 42.154 40.7629 42.154C39.7656 42.154 39.2669 41.736 39.2669 40.9C39.2669 40.7533 39.2816 40.5957 39.3109 40.427L39.5749 38.964C39.5969 38.832 39.6079 38.7183 39.6079 38.623ZM48.3491 40.306C48.3491 40.4967 48.4445 40.592 48.6351 40.592C48.8331 40.592 48.9981 40.5553 49.1301 40.482L49.0751 41.725C48.7231 42.011 48.3271 42.154 47.8871 42.154C47.0805 42.154 46.6331 41.8607 46.5451 41.274C46.1785 41.8607 45.6395 42.154 44.9281 42.154C43.7255 42.154 43.1241 41.637 43.1241 40.603C43.1241 40.427 43.1425 40.2327 43.1791 40.02L43.4101 38.733C43.5275 38.073 43.7951 37.5487 44.2131 37.16C44.6385 36.764 45.2251 36.566 45.9731 36.566C46.4351 36.566 46.8018 36.665 47.0731 36.863L47.6341 33.651H49.5151L48.3601 40.174C48.3528 40.218 48.3491 40.262 48.3491 40.306ZM45.0931 39.778C45.0785 39.844 45.0711 39.9357 45.0711 40.053C45.0711 40.1703 45.1261 40.2877 45.2361 40.405C45.3461 40.515 45.5295 40.57 45.7861 40.57C46.0501 40.57 46.2775 40.4673 46.4681 40.262L46.7981 38.414C46.7175 38.2307 46.5268 38.139 46.2261 38.139C45.6615 38.139 45.3315 38.4103 45.2361 38.953L45.0931 39.778ZM59.6802 40.592C59.8488 40.592 59.9992 40.5553 60.1312 40.482L60.0762 41.725C59.7315 42.011 59.3392 42.154 58.8992 42.154C57.9018 42.154 57.4032 41.736 57.4032 40.9C57.4032 40.7533 57.4178 40.5957 57.4472 40.427L57.6782 39.074C57.7002 38.942 57.7112 38.81 57.7112 38.678C57.7112 38.326 57.5168 38.15 57.1282 38.15C56.7468 38.15 56.4462 38.3003 56.2262 38.601L55.6322 42H53.7622L54.2792 39.074C54.3012 38.942 54.3122 38.81 54.3122 38.678C54.3122 38.326 54.1142 38.15 53.7182 38.15C53.4028 38.15 53.1315 38.271 52.9042 38.513L52.2882 42H50.4182L51.3532 36.709H53.0912L52.9702 37.369C53.4102 36.8263 53.9675 36.555 54.6422 36.555C55.5955 36.555 56.1382 36.8703 56.2702 37.501C56.7102 36.8703 57.2968 36.555 58.0302 36.555C58.7708 36.555 59.2512 36.72 59.4712 37.05C59.6178 37.2773 59.6912 37.5267 59.6912 37.798C59.6912 38.0693 59.6728 38.315 59.6362 38.535L59.3612 40.174C59.3538 40.218 59.3502 40.2583 59.3502 40.295C59.3502 40.493 59.4602 40.592 59.6802 40.592ZM66.4863 40.306C66.4863 40.4967 66.5816 40.592 66.7723 40.592C66.9703 40.592 67.1353 40.5553 67.2673 40.482L67.2123 41.725C66.8603 42.011 66.4643 42.154 66.0243 42.154C65.2176 42.154 64.7703 41.8607 64.6823 41.274C64.3156 41.8607 63.7766 42.154 63.0653 42.154C61.8626 42.154 61.2613 41.637 61.2613 40.603C61.2613 40.427 61.2796 40.2327 61.3163 40.02L61.5473 38.733C61.6646 38.073 61.9323 37.5487 62.3503 37.16C62.7756 36.764 63.3256 36.566 64.0003 36.566C64.6823 36.566 65.1443 36.7237 65.3863 37.039L65.4413 36.709H67.1133L66.4973 40.174C66.4899 40.218 66.4863 40.262 66.4863 40.306ZM63.2303 39.778C63.2156 39.844 63.2083 39.9357 63.2083 40.053C63.2083 40.1703 63.2633 40.2877 63.3733 40.405C63.4833 40.515 63.6666 40.57 63.9233 40.57C64.1873 40.57 64.4146 40.4673 64.6053 40.262L64.9353 38.414C64.8546 38.2307 64.6639 38.139 64.3633 38.139C63.7986 38.139 63.4686 38.4103 63.3733 38.953L63.2303 39.778ZM73.6534 40.306C73.6534 40.4967 73.7488 40.592 73.9394 40.592C74.1374 40.592 74.3024 40.5553 74.4344 40.482L74.3794 41.725C74.0274 42.011 73.6314 42.154 73.1914 42.154C72.3848 42.154 71.9374 41.8607 71.8494 41.274C71.4828 41.8607 70.9438 42.154 70.2324 42.154C69.0298 42.154 68.4284 41.637 68.4284 40.603C68.4284 40.427 68.4468 40.2327 68.4834 40.02L68.7144 38.733C68.8318 38.073 69.0994 37.5487 69.5174 37.16C69.9428 36.764 70.5294 36.566 71.2774 36.566C71.7394 36.566 72.1061 36.665 72.3774 36.863L72.9384 33.651H74.8194L73.6644 40.174C73.6571 40.218 73.6534 40.262 73.6534 40.306ZM70.3974 39.778C70.3828 39.844 70.3754 39.9357 70.3754 40.053C70.3754 40.1703 70.4304 40.2877 70.5404 40.405C70.6504 40.515 70.8338 40.57 71.0904 40.57C71.3544 40.57 71.5818 40.4673 71.7724 40.262L72.1024 38.414C72.0218 38.2307 71.8311 38.139 71.5304 38.139C70.9658 38.139 70.6358 38.4103 70.5404 38.953L70.3974 39.778ZM78.0985 42.154C76.5731 42.154 75.8105 41.626 75.8105 40.57C75.8105 40.4233 75.8251 40.2657 75.8545 40.097L76.0855 38.733C76.2101 38.029 76.5328 37.49 77.0535 37.116C77.5815 36.7347 78.2781 36.544 79.1435 36.544C80.6175 36.544 81.3545 37.1013 81.3545 38.216C81.3545 38.3773 81.3398 38.5533 81.3105 38.744L81.1785 39.525H77.8235L77.7795 39.778C77.7648 39.866 77.7575 39.9467 77.7575 40.02C77.7575 40.4233 77.9958 40.625 78.4725 40.625C78.6485 40.625 78.7988 40.57 78.9235 40.46C79.0481 40.35 79.1215 40.2217 79.1435 40.075L80.9695 40.097C80.7275 41.4683 79.7705 42.154 78.0985 42.154ZM79.4185 38.854C79.4478 38.7293 79.4625 38.6157 79.4625 38.513C79.4625 38.403 79.4148 38.293 79.3195 38.183C79.2241 38.073 79.0701 38.018 78.8575 38.018C78.6521 38.018 78.4615 38.0877 78.2855 38.227C78.1168 38.3663 77.9995 38.5753 77.9335 38.854H79.4185Z" fill="black" fill-opacity="0.66"/>
</svg>
