<svg width="21" height="21" viewBox="0 0 21 21" fill="none" xmlns="http://www.w3.org/2000/svg">
<path d="M8.79541 1.125C7.27835 1.125 5.79535 1.57486 4.53396 2.4177C3.27257 3.26053 2.28943 4.45849 1.70888 5.86007C1.12832 7.26166 0.976424 8.80392 1.27239 10.2918C1.56835 11.7797 2.29889 13.1465 3.37161 14.2192C4.44434 15.2919 5.81108 16.0225 7.29899 16.3184C8.7869 16.6144 10.3292 16.4625 11.7308 15.8819C13.1323 15.3014 14.3303 14.3183 15.1731 13.0569C16.016 11.7955 16.4658 10.3125 16.4658 8.79541C16.4657 6.76113 15.6575 4.81021 14.2191 3.37175C12.7806 1.9333 10.8297 1.12513 8.79541 1.125Z" stroke="#8E8E8E" stroke-width="2" stroke-miterlimit="10"/>
<path d="M14.3506 14.4469L19.7075 19.8038" stroke="#8E8E8E" stroke-width="2" stroke-miterlimit="10" stroke-linecap="round"/>
</svg>
